<?xml version="1.0" encoding="utf-8" standalone="no"?>
<!DOCTYPE svg PUBLIC "-//W3C//DTD SVG 1.1//EN"
  "http://www.w3.org/Graphics/SVG/1.1/DTD/svg11.dtd">
<svg xmlns:xlink="http://www.w3.org/1999/xlink" width="518.4pt" height="475.2pt" viewBox="0 0 518.4 475.2" xmlns="http://www.w3.org/2000/svg" version="1.1">
 <metadata>
  <rdf:RDF xmlns:dc="http://purl.org/dc/elements/1.1/" xmlns:cc="http://creativecommons.org/ns#" xmlns:rdf="http://www.w3.org/1999/02/22-rdf-syntax-ns#">
   <cc:Work>
    <dc:type rdf:resource="http://purl.org/dc/dcmitype/StillImage"/>
    <dc:date>2026-10-08T13:17:20.597199</dc:date>
    <dc:format>image/svg+xml</dc:format>
    <dc:creator>
     <cc:Agent>
      <dc:title>Matplotlib v3.10.8, https://matplotlib.org/</dc:title>
     </cc:Agent>
    </dc:creator>
   </cc:Work>
  </rdf:RDF>
 </metadata>
 <defs>
  <style type="text/css">*{stroke-linejoin: round; stroke-linecap: butt}</style>
 </defs>
 <g id="figure_1">
  <g id="patch_1">
   <path d="M 0 475.2
L 518.4 475.2
L 518.4 0
L 0 0
z
" style="fill: #ffffff"/>
  </g>
  <g id="axes_1">
   <g id="patch_2">
    <path d="M 315.032139 272.890626
L 347.874573 329.775391
L 406.990955 329.775391
L 374.148521 272.890626
z
" clip-path="url(#p077ee7b9ff)" style="fill: #a7cce1"/>
   </g>
   <g id="patch_3">
    <path d="M 209.936348 329.775391
L 423.412173 415.102539
L 456.254607 415.102539
L 406.990955 329.775391
z
" clip-path="url(#p077ee7b9ff)" style="fill: #eed4a0"/>
   </g>
   <g id="patch_4">
    <path d="M 62.145393 415.102539
L 101.556314 415.102539
L 216.504835 216.005861
L 144.251479 272.890626
z
" clip-path="url(#p077ee7b9ff)" style="fill: #a9d4c7"/>
   </g>
   <g id="patch_5">
    <path d="M 101.556314 415.102539
L 239.494539 415.102539
L 275.621217 386.660157
L 137.682992 386.660157
z
" clip-path="url(#p077ee7b9ff)" style="fill: #d3bfdc"/>
   </g>
   <g id="patch_6">
    <path d="M 282.189704 272.890626
L 324.884869 289.956056
L 315.032139 272.890626
z
" clip-path="url(#p077ee7b9ff)" style="fill: #f5beaa"/>
   </g>
   <g id="patch_7">
    <path d="M 239.494539 415.102539
L 423.412173 415.102539
L 301.425987 366.344169
z
" clip-path="url(#p077ee7b9ff)" style="fill: #c2d39e"/>
   </g>
   <g id="patch_8">
    <path d="M 137.682992 386.660157
L 275.621217 386.660157
L 184.131578 350.091379
z
" clip-path="url(#p077ee7b9ff)" style="fill: #a6bad9"/>
   </g>
   <g id="patch_9">
    <path d="M 209.936348 329.775391
L 347.874573 329.775391
L 256.384934 293.206614
z
" clip-path="url(#p077ee7b9ff)" style="fill: #e4c6d5"/>
   </g>
   <g id="patch_10">
    <path d="M 251.693158 260.701034
L 282.189704 272.890626
L 374.148521 272.890626
L 282.658882 236.321848
z
" clip-path="url(#p077ee7b9ff)" style="fill: #c4dcd4"/>
   </g>
   <g id="patch_11">
    <path d="M 101.556314 415.102539
L 256.384934 293.206614
L 242.309605 195.689873
L 216.504835 216.005861
z
" clip-path="url(#p077ee7b9ff)" style="fill: #e4ba91"/>
   </g>
   <g id="patch_12">
    <path d="M 144.251479 272.890626
L 273.275329 171.310688
L 259.2 73.793948
z
" clip-path="url(#p077ee7b9ff)" style="fill: #b7c7e6"/>
   </g>
   <g id="patch_13">
    <path d="M 251.693158 260.701034
L 256.384934 293.206614
L 347.874573 329.775391
L 324.884869 289.956056
z
" clip-path="url(#p077ee7b9ff)" style="fill: #d4d891"/>
   </g>
   <g id="patch_14">
    <path d="M 259.2 73.793948
L 282.658882 236.321848
L 374.148521 272.890626
z
" clip-path="url(#p077ee7b9ff)" style="fill: #c9b4d9"/>
   </g>
   <g id="patch_15">
    <path d="M 184.131578 350.091379
L 275.621217 386.660157
L 301.425987 366.344169
L 209.936348 329.775391
z
" clip-path="url(#p077ee7b9ff)" style="fill: #ead89f"/>
   </g>
   <g id="patch_16">
    <path d="M 242.309605 195.689873
L 251.693158 260.701034
L 282.658882 236.321848
L 273.275329 171.310688
z
" clip-path="url(#p077ee7b9ff)" style="fill: #abc7bd"/>
   </g>
   <g id="patch_17">
    <path d="M 347.874573 329.775391
L 367.580034 329.775391
L 331.453356 301.333009
L 347.874573 329.775391
z
" clip-path="url(#p077ee7b9ff)" style="fill: none; stroke: #66707b; stroke-width: 0.32; stroke-linejoin: miter"/>
   </g>
   <g id="patch_18">
    <path d="M 351.158817 301.333009
L 331.453356 301.333009
L 367.580034 329.775391
L 351.158817 301.333009
z
" clip-path="url(#p077ee7b9ff)" style="fill: none; stroke: #66707b; stroke-width: 0.32; stroke-linejoin: miter"/>
   </g>
   <g id="patch_19">
    <path d="M 331.453356 301.333009
L 351.158817 301.333009
L 315.032139 272.890626
L 331.453356 301.333009
z
" clip-path="url(#p077ee7b9ff)" style="fill: none; stroke: #66707b; stroke-width: 0.32; stroke-linejoin: miter"/>
   </g>
   <g id="patch_20">
    <path d="M 334.737599 272.890626
L 315.032139 272.890626
L 351.158817 301.333009
L 334.737599 272.890626
z
" clip-path="url(#p077ee7b9ff)" style="fill: none; stroke: #66707b; stroke-width: 0.32; stroke-linejoin: miter"/>
   </g>
   <g id="patch_21">
    <path d="M 367.580034 329.775391
L 387.285495 329.775391
L 351.158817 301.333009
L 367.580034 329.775391
z
" clip-path="url(#p077ee7b9ff)" style="fill: none; stroke: #66707b; stroke-width: 0.32; stroke-linejoin: miter"/>
   </g>
   <g id="patch_22">
    <path d="M 370.864277 301.333009
L 351.158817 301.333009
L 387.285495 329.775391
L 370.864277 301.333009
z
" clip-path="url(#p077ee7b9ff)" style="fill: none; stroke: #66707b; stroke-width: 0.32; stroke-linejoin: miter"/>
   </g>
   <g id="patch_23">
    <path d="M 351.158817 301.333009
L 370.864277 301.333009
L 334.737599 272.890626
L 351.158817 301.333009
z
" clip-path="url(#p077ee7b9ff)" style="fill: none; stroke: #66707b; stroke-width: 0.32; stroke-linejoin: miter"/>
   </g>
   <g id="patch_24">
    <path d="M 354.44306 272.890626
L 334.737599 272.890626
L 370.864277 301.333009
L 354.44306 272.890626
z
" clip-path="url(#p077ee7b9ff)" style="fill: none; stroke: #66707b; stroke-width: 0.32; stroke-linejoin: miter"/>
   </g>
   <g id="patch_25">
    <path d="M 387.285495 329.775391
L 406.990955 329.775391
L 370.864277 301.333009
L 387.285495 329.775391
z
" clip-path="url(#p077ee7b9ff)" style="fill: none; stroke: #66707b; stroke-width: 0.32; stroke-linejoin: miter"/>
   </g>
   <g id="patch_26">
    <path d="M 390.569738 301.333009
L 370.864277 301.333009
L 406.990955 329.775391
L 390.569738 301.333009
z
" clip-path="url(#p077ee7b9ff)" style="fill: none; stroke: #66707b; stroke-width: 0.32; stroke-linejoin: miter"/>
   </g>
   <g id="patch_27">
    <path d="M 370.864277 301.333009
L 390.569738 301.333009
L 354.44306 272.890626
L 370.864277 301.333009
z
" clip-path="url(#p077ee7b9ff)" style="fill: none; stroke: #66707b; stroke-width: 0.32; stroke-linejoin: miter"/>
   </g>
   <g id="patch_28">
    <path d="M 374.148521 272.890626
L 354.44306 272.890626
L 390.569738 301.333009
L 374.148521 272.890626
z
" clip-path="url(#p077ee7b9ff)" style="fill: none; stroke: #66707b; stroke-width: 0.32; stroke-linejoin: miter"/>
   </g>
   <g id="patch_29">
    <path d="M 380.717008 398.03711
L 423.412173 415.102539
L 413.559442 398.03711
L 380.717008 398.03711
z
" clip-path="url(#p077ee7b9ff)" style="fill: none; stroke: #66707b; stroke-width: 0.32; stroke-linejoin: miter"/>
   </g>
   <g id="patch_30">
    <path d="M 456.254607 415.102539
L 413.559442 398.03711
L 423.412173 415.102539
L 456.254607 415.102539
z
" clip-path="url(#p077ee7b9ff)" style="fill: none; stroke: #66707b; stroke-width: 0.32; stroke-linejoin: miter"/>
   </g>
   <g id="patch_31">
    <path d="M 413.559442 398.03711
L 456.254607 415.102539
L 446.401877 398.03711
L 413.559442 398.03711
z
" clip-path="url(#p077ee7b9ff)" style="fill: none; stroke: #66707b; stroke-width: 0.32; stroke-linejoin: miter"/>
   </g>
   <g id="patch_32">
    <path d="M 338.021843 380.97168
L 380.717008 398.03711
L 370.864277 380.97168
L 338.021843 380.97168
z
" clip-path="url(#p077ee7b9ff)" style="fill: none; stroke: #66707b; stroke-width: 0.32; stroke-linejoin: miter"/>
   </g>
   <g id="patch_33">
    <path d="M 413.559442 398.03711
L 370.864277 380.97168
L 380.717008 398.03711
L 413.559442 398.03711
z
" clip-path="url(#p077ee7b9ff)" style="fill: none; stroke: #66707b; stroke-width: 0.32; stroke-linejoin: miter"/>
   </g>
   <g id="patch_34">
    <path d="M 370.864277 380.97168
L 413.559442 398.03711
L 403.706712 380.97168
L 370.864277 380.97168
z
" clip-path="url(#p077ee7b9ff)" style="fill: none; stroke: #66707b; stroke-width: 0.32; stroke-linejoin: miter"/>
   </g>
   <g id="patch_35">
    <path d="M 446.401877 398.03711
L 403.706712 380.97168
L 413.559442 398.03711
L 446.401877 398.03711
z
" clip-path="url(#p077ee7b9ff)" style="fill: none; stroke: #66707b; stroke-width: 0.32; stroke-linejoin: miter"/>
   </g>
   <g id="patch_36">
    <path d="M 403.706712 380.97168
L 446.401877 398.03711
L 436.549147 380.97168
L 403.706712 380.97168
z
" clip-path="url(#p077ee7b9ff)" style="fill: none; stroke: #66707b; stroke-width: 0.32; stroke-linejoin: miter"/>
   </g>
   <g id="patch_37">
    <path d="M 295.326678 363.906251
L 338.021843 380.97168
L 328.169113 363.906251
L 295.326678 363.906251
z
" clip-path="url(#p077ee7b9ff)" style="fill: none; stroke: #66707b; stroke-width: 0.32; stroke-linejoin: miter"/>
   </g>
   <g id="patch_38">
    <path d="M 370.864277 380.97168
L 328.169113 363.906251
L 338.021843 380.97168
L 370.864277 380.97168
z
" clip-path="url(#p077ee7b9ff)" style="fill: none; stroke: #66707b; stroke-width: 0.32; stroke-linejoin: miter"/>
   </g>
   <g id="patch_39">
    <path d="M 328.169113 363.906251
L 370.864277 380.97168
L 361.011547 363.906251
L 328.169113 363.906251
z
" clip-path="url(#p077ee7b9ff)" style="fill: none; stroke: #66707b; stroke-width: 0.32; stroke-linejoin: miter"/>
   </g>
   <g id="patch_40">
    <path d="M 403.706712 380.97168
L 361.011547 363.906251
L 370.864277 380.97168
L 403.706712 380.97168
z
" clip-path="url(#p077ee7b9ff)" style="fill: none; stroke: #66707b; stroke-width: 0.32; stroke-linejoin: miter"/>
   </g>
   <g id="patch_41">
    <path d="M 361.011547 363.906251
L 403.706712 380.97168
L 393.853982 363.906251
L 361.011547 363.906251
z
" clip-path="url(#p077ee7b9ff)" style="fill: none; stroke: #66707b; stroke-width: 0.32; stroke-linejoin: miter"/>
   </g>
   <g id="patch_42">
    <path d="M 436.549147 380.97168
L 393.853982 363.906251
L 403.706712 380.97168
L 436.549147 380.97168
z
" clip-path="url(#p077ee7b9ff)" style="fill: none; stroke: #66707b; stroke-width: 0.32; stroke-linejoin: miter"/>
   </g>
   <g id="patch_43">
    <path d="M 393.853982 363.906251
L 436.549147 380.97168
L 426.696416 363.906251
L 393.853982 363.906251
z
" clip-path="url(#p077ee7b9ff)" style="fill: none; stroke: #66707b; stroke-width: 0.32; stroke-linejoin: miter"/>
   </g>
   <g id="patch_44">
    <path d="M 252.631513 346.840821
L 295.326678 363.906251
L 285.473948 346.840821
L 252.631513 346.840821
z
" clip-path="url(#p077ee7b9ff)" style="fill: none; stroke: #66707b; stroke-width: 0.32; stroke-linejoin: miter"/>
   </g>
   <g id="patch_45">
    <path d="M 328.169113 363.906251
L 285.473948 346.840821
L 295.326678 363.906251
L 328.169113 363.906251
z
" clip-path="url(#p077ee7b9ff)" style="fill: none; stroke: #66707b; stroke-width: 0.32; stroke-linejoin: miter"/>
   </g>
   <g id="patch_46">
    <path d="M 285.473948 346.840821
L 328.169113 363.906251
L 318.316382 346.840821
L 285.473948 346.840821
z
" clip-path="url(#p077ee7b9ff)" style="fill: none; stroke: #66707b; stroke-width: 0.32; stroke-linejoin: miter"/>
   </g>
   <g id="patch_47">
    <path d="M 361.011547 363.906251
L 318.316382 346.840821
L 328.169113 363.906251
L 361.011547 363.906251
z
" clip-path="url(#p077ee7b9ff)" style="fill: none; stroke: #66707b; stroke-width: 0.32; stroke-linejoin: miter"/>
   </g>
   <g id="patch_48">
    <path d="M 318.316382 346.840821
L 361.011547 363.906251
L 351.158817 346.840821
L 318.316382 346.840821
z
" clip-path="url(#p077ee7b9ff)" style="fill: none; stroke: #66707b; stroke-width: 0.32; stroke-linejoin: miter"/>
   </g>
   <g id="patch_49">
    <path d="M 393.853982 363.906251
L 351.158817 346.840821
L 361.011547 363.906251
L 393.853982 363.906251
z
" clip-path="url(#p077ee7b9ff)" style="fill: none; stroke: #66707b; stroke-width: 0.32; stroke-linejoin: miter"/>
   </g>
   <g id="patch_50">
    <path d="M 351.158817 346.840821
L 393.853982 363.906251
L 384.001251 346.840821
L 351.158817 346.840821
z
" clip-path="url(#p077ee7b9ff)" style="fill: none; stroke: #66707b; stroke-width: 0.32; stroke-linejoin: miter"/>
   </g>
   <g id="patch_51">
    <path d="M 426.696416 363.906251
L 384.001251 346.840821
L 393.853982 363.906251
L 426.696416 363.906251
z
" clip-path="url(#p077ee7b9ff)" style="fill: none; stroke: #66707b; stroke-width: 0.32; stroke-linejoin: miter"/>
   </g>
   <g id="patch_52">
    <path d="M 384.001251 346.840821
L 426.696416 363.906251
L 416.843686 346.840821
L 384.001251 346.840821
z
" clip-path="url(#p077ee7b9ff)" style="fill: none; stroke: #66707b; stroke-width: 0.32; stroke-linejoin: miter"/>
   </g>
   <g id="patch_53">
    <path d="M 209.936348 329.775391
L 252.631513 346.840821
L 242.778783 329.775391
L 209.936348 329.775391
z
" clip-path="url(#p077ee7b9ff)" style="fill: none; stroke: #66707b; stroke-width: 0.32; stroke-linejoin: miter"/>
   </g>
   <g id="patch_54">
    <path d="M 285.473948 346.840821
L 242.778783 329.775391
L 252.631513 346.840821
L 285.473948 346.840821
z
" clip-path="url(#p077ee7b9ff)" style="fill: none; stroke: #66707b; stroke-width: 0.32; stroke-linejoin: miter"/>
   </g>
   <g id="patch_55">
    <path d="M 242.778783 329.775391
L 285.473948 346.840821
L 275.621217 329.775391
L 242.778783 329.775391
z
" clip-path="url(#p077ee7b9ff)" style="fill: none; stroke: #66707b; stroke-width: 0.32; stroke-linejoin: miter"/>
   </g>
   <g id="patch_56">
    <path d="M 318.316382 346.840821
L 275.621217 329.775391
L 285.473948 346.840821
L 318.316382 346.840821
z
" clip-path="url(#p077ee7b9ff)" style="fill: none; stroke: #66707b; stroke-width: 0.32; stroke-linejoin: miter"/>
   </g>
   <g id="patch_57">
    <path d="M 275.621217 329.775391
L 318.316382 346.840821
L 308.463652 329.775391
L 275.621217 329.775391
z
" clip-path="url(#p077ee7b9ff)" style="fill: none; stroke: #66707b; stroke-width: 0.32; stroke-linejoin: miter"/>
   </g>
   <g id="patch_58">
    <path d="M 351.158817 346.840821
L 308.463652 329.775391
L 318.316382 346.840821
L 351.158817 346.840821
z
" clip-path="url(#p077ee7b9ff)" style="fill: none; stroke: #66707b; stroke-width: 0.32; stroke-linejoin: miter"/>
   </g>
   <g id="patch_59">
    <path d="M 308.463652 329.775391
L 351.158817 346.840821
L 341.306086 329.775391
L 308.463652 329.775391
z
" clip-path="url(#p077ee7b9ff)" style="fill: none; stroke: #66707b; stroke-width: 0.32; stroke-linejoin: miter"/>
   </g>
   <g id="patch_60">
    <path d="M 384.001251 346.840821
L 341.306086 329.775391
L 351.158817 346.840821
L 384.001251 346.840821
z
" clip-path="url(#p077ee7b9ff)" style="fill: none; stroke: #66707b; stroke-width: 0.32; stroke-linejoin: miter"/>
   </g>
   <g id="patch_61">
    <path d="M 341.306086 329.775391
L 384.001251 346.840821
L 374.148521 329.775391
L 341.306086 329.775391
z
" clip-path="url(#p077ee7b9ff)" style="fill: none; stroke: #66707b; stroke-width: 0.32; stroke-linejoin: miter"/>
   </g>
   <g id="patch_62">
    <path d="M 416.843686 346.840821
L 374.148521 329.775391
L 384.001251 346.840821
L 416.843686 346.840821
z
" clip-path="url(#p077ee7b9ff)" style="fill: none; stroke: #66707b; stroke-width: 0.32; stroke-linejoin: miter"/>
   </g>
   <g id="patch_63">
    <path d="M 374.148521 329.775391
L 416.843686 346.840821
L 406.990955 329.775391
L 374.148521 329.775391
z
" clip-path="url(#p077ee7b9ff)" style="fill: none; stroke: #66707b; stroke-width: 0.32; stroke-linejoin: miter"/>
   </g>
   <g id="patch_64">
    <path d="M 117.977531 386.660157
L 81.850853 415.102539
L 101.556314 415.102539
L 117.977531 386.660157
z
" clip-path="url(#p077ee7b9ff)" style="fill: none; stroke: #66707b; stroke-width: 0.32; stroke-linejoin: miter"/>
   </g>
   <g id="patch_65">
    <path d="M 81.850853 415.102539
L 117.977531 386.660157
L 98.272071 386.660157
L 81.850853 415.102539
z
" clip-path="url(#p077ee7b9ff)" style="fill: none; stroke: #66707b; stroke-width: 0.32; stroke-linejoin: miter"/>
   </g>
   <g id="patch_66">
    <path d="M 134.398749 358.217774
L 98.272071 386.660157
L 117.977531 386.660157
L 134.398749 358.217774
z
" clip-path="url(#p077ee7b9ff)" style="fill: none; stroke: #66707b; stroke-width: 0.32; stroke-linejoin: miter"/>
   </g>
   <g id="patch_67">
    <path d="M 98.272071 386.660157
L 134.398749 358.217774
L 114.693288 358.217774
L 98.272071 386.660157
z
" clip-path="url(#p077ee7b9ff)" style="fill: none; stroke: #66707b; stroke-width: 0.32; stroke-linejoin: miter"/>
   </g>
   <g id="patch_68">
    <path d="M 150.819966 329.775391
L 114.693288 358.217774
L 134.398749 358.217774
L 150.819966 329.775391
z
" clip-path="url(#p077ee7b9ff)" style="fill: none; stroke: #66707b; stroke-width: 0.32; stroke-linejoin: miter"/>
   </g>
   <g id="patch_69">
    <path d="M 114.693288 358.217774
L 150.819966 329.775391
L 131.114505 329.775391
L 114.693288 358.217774
z
" clip-path="url(#p077ee7b9ff)" style="fill: none; stroke: #66707b; stroke-width: 0.32; stroke-linejoin: miter"/>
   </g>
   <g id="patch_70">
    <path d="M 167.241183 301.333009
L 131.114505 329.775391
L 150.819966 329.775391
L 167.241183 301.333009
z
" clip-path="url(#p077ee7b9ff)" style="fill: none; stroke: #66707b; stroke-width: 0.32; stroke-linejoin: miter"/>
   </g>
   <g id="patch_71">
    <path d="M 131.114505 329.775391
L 167.241183 301.333009
L 147.535723 301.333009
L 131.114505 329.775391
z
" clip-path="url(#p077ee7b9ff)" style="fill: none; stroke: #66707b; stroke-width: 0.32; stroke-linejoin: miter"/>
   </g>
   <g id="patch_72">
    <path d="M 183.662401 272.890626
L 147.535723 301.333009
L 167.241183 301.333009
L 183.662401 272.890626
z
" clip-path="url(#p077ee7b9ff)" style="fill: none; stroke: #66707b; stroke-width: 0.32; stroke-linejoin: miter"/>
   </g>
   <g id="patch_73">
    <path d="M 147.535723 301.333009
L 183.662401 272.890626
L 163.95694 272.890626
L 147.535723 301.333009
z
" clip-path="url(#p077ee7b9ff)" style="fill: none; stroke: #66707b; stroke-width: 0.32; stroke-linejoin: miter"/>
   </g>
   <g id="patch_74">
    <path d="M 200.083618 244.448243
L 163.95694 272.890626
L 183.662401 272.890626
L 200.083618 244.448243
z
" clip-path="url(#p077ee7b9ff)" style="fill: none; stroke: #66707b; stroke-width: 0.32; stroke-linejoin: miter"/>
   </g>
   <g id="patch_75">
    <path d="M 163.95694 272.890626
L 200.083618 244.448243
L 180.378157 244.448243
L 163.95694 272.890626
z
" clip-path="url(#p077ee7b9ff)" style="fill: none; stroke: #66707b; stroke-width: 0.32; stroke-linejoin: miter"/>
   </g>
   <g id="patch_76">
    <path d="M 216.504835 216.005861
L 180.378157 244.448243
L 200.083618 244.448243
L 216.504835 216.005861
z
" clip-path="url(#p077ee7b9ff)" style="fill: none; stroke: #66707b; stroke-width: 0.32; stroke-linejoin: miter"/>
   </g>
   <g id="patch_77">
    <path d="M 98.272071 386.660157
L 62.145393 415.102539
L 81.850853 415.102539
L 98.272071 386.660157
z
" clip-path="url(#p077ee7b9ff)" style="fill: none; stroke: #66707b; stroke-width: 0.32; stroke-linejoin: miter"/>
   </g>
   <g id="patch_78">
    <path d="M 62.145393 415.102539
L 98.272071 386.660157
L 78.56661 386.660157
L 62.145393 415.102539
z
" clip-path="url(#p077ee7b9ff)" style="fill: none; stroke: #66707b; stroke-width: 0.32; stroke-linejoin: miter"/>
   </g>
   <g id="patch_79">
    <path d="M 114.693288 358.217774
L 78.56661 386.660157
L 98.272071 386.660157
L 114.693288 358.217774
z
" clip-path="url(#p077ee7b9ff)" style="fill: none; stroke: #66707b; stroke-width: 0.32; stroke-linejoin: miter"/>
   </g>
   <g id="patch_80">
    <path d="M 78.56661 386.660157
L 114.693288 358.217774
L 94.987827 358.217774
L 78.56661 386.660157
z
" clip-path="url(#p077ee7b9ff)" style="fill: none; stroke: #66707b; stroke-width: 0.32; stroke-linejoin: miter"/>
   </g>
   <g id="patch_81">
    <path d="M 131.114505 329.775391
L 94.987827 358.217774
L 114.693288 358.217774
L 131.114505 329.775391
z
" clip-path="url(#p077ee7b9ff)" style="fill: none; stroke: #66707b; stroke-width: 0.32; stroke-linejoin: miter"/>
   </g>
   <g id="patch_82">
    <path d="M 94.987827 358.217774
L 131.114505 329.775391
L 111.409045 329.775391
L 94.987827 358.217774
z
" clip-path="url(#p077ee7b9ff)" style="fill: none; stroke: #66707b; stroke-width: 0.32; stroke-linejoin: miter"/>
   </g>
   <g id="patch_83">
    <path d="M 147.535723 301.333009
L 111.409045 329.775391
L 131.114505 329.775391
L 147.535723 301.333009
z
" clip-path="url(#p077ee7b9ff)" style="fill: none; stroke: #66707b; stroke-width: 0.32; stroke-linejoin: miter"/>
   </g>
   <g id="patch_84">
    <path d="M 111.409045 329.775391
L 147.535723 301.333009
L 127.830262 301.333009
L 111.409045 329.775391
z
" clip-path="url(#p077ee7b9ff)" style="fill: none; stroke: #66707b; stroke-width: 0.32; stroke-linejoin: miter"/>
   </g>
   <g id="patch_85">
    <path d="M 163.95694 272.890626
L 127.830262 301.333009
L 147.535723 301.333009
L 163.95694 272.890626
z
" clip-path="url(#p077ee7b9ff)" style="fill: none; stroke: #66707b; stroke-width: 0.32; stroke-linejoin: miter"/>
   </g>
   <g id="patch_86">
    <path d="M 127.830262 301.333009
L 163.95694 272.890626
L 144.251479 272.890626
L 127.830262 301.333009
z
" clip-path="url(#p077ee7b9ff)" style="fill: none; stroke: #66707b; stroke-width: 0.32; stroke-linejoin: miter"/>
   </g>
   <g id="patch_87">
    <path d="M 180.378157 244.448243
L 144.251479 272.890626
L 163.95694 272.890626
L 180.378157 244.448243
z
" clip-path="url(#p077ee7b9ff)" style="fill: none; stroke: #66707b; stroke-width: 0.32; stroke-linejoin: miter"/>
   </g>
   <g id="patch_88">
    <path d="M 239.494539 415.102539
L 275.621217 386.660157
L 255.915757 386.660157
L 239.494539 415.102539
z
" clip-path="url(#p077ee7b9ff)" style="fill: none; stroke: #66707b; stroke-width: 0.32; stroke-linejoin: miter"/>
   </g>
   <g id="patch_89">
    <path d="M 255.915757 386.660157
L 219.789079 415.102539
L 239.494539 415.102539
L 255.915757 386.660157
z
" clip-path="url(#p077ee7b9ff)" style="fill: none; stroke: #66707b; stroke-width: 0.32; stroke-linejoin: miter"/>
   </g>
   <g id="patch_90">
    <path d="M 219.789079 415.102539
L 255.915757 386.660157
L 236.210296 386.660157
L 219.789079 415.102539
z
" clip-path="url(#p077ee7b9ff)" style="fill: none; stroke: #66707b; stroke-width: 0.32; stroke-linejoin: miter"/>
   </g>
   <g id="patch_91">
    <path d="M 236.210296 386.660157
L 200.083618 415.102539
L 219.789079 415.102539
L 236.210296 386.660157
z
" clip-path="url(#p077ee7b9ff)" style="fill: none; stroke: #66707b; stroke-width: 0.32; stroke-linejoin: miter"/>
   </g>
   <g id="patch_92">
    <path d="M 200.083618 415.102539
L 236.210296 386.660157
L 216.504835 386.660157
L 200.083618 415.102539
z
" clip-path="url(#p077ee7b9ff)" style="fill: none; stroke: #66707b; stroke-width: 0.32; stroke-linejoin: miter"/>
   </g>
   <g id="patch_93">
    <path d="M 216.504835 386.660157
L 180.378157 415.102539
L 200.083618 415.102539
L 216.504835 386.660157
z
" clip-path="url(#p077ee7b9ff)" style="fill: none; stroke: #66707b; stroke-width: 0.32; stroke-linejoin: miter"/>
   </g>
   <g id="patch_94">
    <path d="M 180.378157 415.102539
L 216.504835 386.660157
L 196.799374 386.660157
L 180.378157 415.102539
z
" clip-path="url(#p077ee7b9ff)" style="fill: none; stroke: #66707b; stroke-width: 0.32; stroke-linejoin: miter"/>
   </g>
   <g id="patch_95">
    <path d="M 196.799374 386.660157
L 160.672696 415.102539
L 180.378157 415.102539
L 196.799374 386.660157
z
" clip-path="url(#p077ee7b9ff)" style="fill: none; stroke: #66707b; stroke-width: 0.32; stroke-linejoin: miter"/>
   </g>
   <g id="patch_96">
    <path d="M 160.672696 415.102539
L 196.799374 386.660157
L 177.093914 386.660157
L 160.672696 415.102539
z
" clip-path="url(#p077ee7b9ff)" style="fill: none; stroke: #66707b; stroke-width: 0.32; stroke-linejoin: miter"/>
   </g>
   <g id="patch_97">
    <path d="M 177.093914 386.660157
L 140.967236 415.102539
L 160.672696 415.102539
L 177.093914 386.660157
z
" clip-path="url(#p077ee7b9ff)" style="fill: none; stroke: #66707b; stroke-width: 0.32; stroke-linejoin: miter"/>
   </g>
   <g id="patch_98">
    <path d="M 140.967236 415.102539
L 177.093914 386.660157
L 157.388453 386.660157
L 140.967236 415.102539
z
" clip-path="url(#p077ee7b9ff)" style="fill: none; stroke: #66707b; stroke-width: 0.32; stroke-linejoin: miter"/>
   </g>
   <g id="patch_99">
    <path d="M 157.388453 386.660157
L 121.261775 415.102539
L 140.967236 415.102539
L 157.388453 386.660157
z
" clip-path="url(#p077ee7b9ff)" style="fill: none; stroke: #66707b; stroke-width: 0.32; stroke-linejoin: miter"/>
   </g>
   <g id="patch_100">
    <path d="M 121.261775 415.102539
L 157.388453 386.660157
L 137.682992 386.660157
L 121.261775 415.102539
z
" clip-path="url(#p077ee7b9ff)" style="fill: none; stroke: #66707b; stroke-width: 0.32; stroke-linejoin: miter"/>
   </g>
   <g id="patch_101">
    <path d="M 137.682992 386.660157
L 101.556314 415.102539
L 121.261775 415.102539
L 137.682992 386.660157
z
" clip-path="url(#p077ee7b9ff)" style="fill: none; stroke: #66707b; stroke-width: 0.32; stroke-linejoin: miter"/>
   </g>
   <g id="patch_102">
    <path d="M 282.189704 272.890626
L 324.884869 289.956056
L 315.032139 272.890626
L 282.189704 272.890626
z
" clip-path="url(#p077ee7b9ff)" style="fill: none; stroke: #66707b; stroke-width: 0.32; stroke-linejoin: miter"/>
   </g>
   <g id="patch_103">
    <path d="M 254.977401 402.912947
L 239.494539 415.102539
L 285.473948 415.102539
L 254.977401 402.912947
z
" clip-path="url(#p077ee7b9ff)" style="fill: none; stroke: #66707b; stroke-width: 0.32; stroke-linejoin: miter"/>
   </g>
   <g id="patch_104">
    <path d="M 300.95681 402.912947
L 285.473948 415.102539
L 331.453356 415.102539
L 300.95681 402.912947
z
" clip-path="url(#p077ee7b9ff)" style="fill: none; stroke: #66707b; stroke-width: 0.32; stroke-linejoin: miter"/>
   </g>
   <g id="patch_105">
    <path d="M 285.473948 415.102539
L 300.95681 402.912947
L 254.977401 402.912947
L 285.473948 415.102539
z
" clip-path="url(#p077ee7b9ff)" style="fill: none; stroke: #66707b; stroke-width: 0.32; stroke-linejoin: miter"/>
   </g>
   <g id="patch_106">
    <path d="M 270.460263 390.723354
L 254.977401 402.912947
L 300.95681 402.912947
L 270.460263 390.723354
z
" clip-path="url(#p077ee7b9ff)" style="fill: none; stroke: #66707b; stroke-width: 0.32; stroke-linejoin: miter"/>
   </g>
   <g id="patch_107">
    <path d="M 346.936218 402.912947
L 331.453356 415.102539
L 377.432764 415.102539
L 346.936218 402.912947
z
" clip-path="url(#p077ee7b9ff)" style="fill: none; stroke: #66707b; stroke-width: 0.32; stroke-linejoin: miter"/>
   </g>
   <g id="patch_108">
    <path d="M 331.453356 415.102539
L 346.936218 402.912947
L 300.95681 402.912947
L 331.453356 415.102539
z
" clip-path="url(#p077ee7b9ff)" style="fill: none; stroke: #66707b; stroke-width: 0.32; stroke-linejoin: miter"/>
   </g>
   <g id="patch_109">
    <path d="M 316.439672 390.723354
L 300.95681 402.912947
L 346.936218 402.912947
L 316.439672 390.723354
z
" clip-path="url(#p077ee7b9ff)" style="fill: none; stroke: #66707b; stroke-width: 0.32; stroke-linejoin: miter"/>
   </g>
   <g id="patch_110">
    <path d="M 300.95681 402.912947
L 316.439672 390.723354
L 270.460263 390.723354
L 300.95681 402.912947
z
" clip-path="url(#p077ee7b9ff)" style="fill: none; stroke: #66707b; stroke-width: 0.32; stroke-linejoin: miter"/>
   </g>
   <g id="patch_111">
    <path d="M 285.943125 378.533762
L 270.460263 390.723354
L 316.439672 390.723354
L 285.943125 378.533762
z
" clip-path="url(#p077ee7b9ff)" style="fill: none; stroke: #66707b; stroke-width: 0.32; stroke-linejoin: miter"/>
   </g>
   <g id="patch_112">
    <path d="M 392.915626 402.912947
L 377.432764 415.102539
L 423.412173 415.102539
L 392.915626 402.912947
z
" clip-path="url(#p077ee7b9ff)" style="fill: none; stroke: #66707b; stroke-width: 0.32; stroke-linejoin: miter"/>
   </g>
   <g id="patch_113">
    <path d="M 377.432764 415.102539
L 392.915626 402.912947
L 346.936218 402.912947
L 377.432764 415.102539
z
" clip-path="url(#p077ee7b9ff)" style="fill: none; stroke: #66707b; stroke-width: 0.32; stroke-linejoin: miter"/>
   </g>
   <g id="patch_114">
    <path d="M 362.41908 390.723354
L 346.936218 402.912947
L 392.915626 402.912947
L 362.41908 390.723354
z
" clip-path="url(#p077ee7b9ff)" style="fill: none; stroke: #66707b; stroke-width: 0.32; stroke-linejoin: miter"/>
   </g>
   <g id="patch_115">
    <path d="M 346.936218 402.912947
L 362.41908 390.723354
L 316.439672 390.723354
L 346.936218 402.912947
z
" clip-path="url(#p077ee7b9ff)" style="fill: none; stroke: #66707b; stroke-width: 0.32; stroke-linejoin: miter"/>
   </g>
   <g id="patch_116">
    <path d="M 331.922534 378.533762
L 316.439672 390.723354
L 362.41908 390.723354
L 331.922534 378.533762
z
" clip-path="url(#p077ee7b9ff)" style="fill: none; stroke: #66707b; stroke-width: 0.32; stroke-linejoin: miter"/>
   </g>
   <g id="patch_117">
    <path d="M 316.439672 390.723354
L 331.922534 378.533762
L 285.943125 378.533762
L 316.439672 390.723354
z
" clip-path="url(#p077ee7b9ff)" style="fill: none; stroke: #66707b; stroke-width: 0.32; stroke-linejoin: miter"/>
   </g>
   <g id="patch_118">
    <path d="M 301.425987 366.344169
L 285.943125 378.533762
L 331.922534 378.533762
L 301.425987 366.344169
z
" clip-path="url(#p077ee7b9ff)" style="fill: none; stroke: #66707b; stroke-width: 0.32; stroke-linejoin: miter"/>
   </g>
   <g id="patch_119">
    <path d="M 153.165854 374.470564
L 137.682992 386.660157
L 183.662401 386.660157
L 153.165854 374.470564
z
" clip-path="url(#p077ee7b9ff)" style="fill: none; stroke: #66707b; stroke-width: 0.32; stroke-linejoin: miter"/>
   </g>
   <g id="patch_120">
    <path d="M 199.145263 374.470564
L 183.662401 386.660157
L 229.641809 386.660157
L 199.145263 374.470564
z
" clip-path="url(#p077ee7b9ff)" style="fill: none; stroke: #66707b; stroke-width: 0.32; stroke-linejoin: miter"/>
   </g>
   <g id="patch_121">
    <path d="M 183.662401 386.660157
L 199.145263 374.470564
L 153.165854 374.470564
L 183.662401 386.660157
z
" clip-path="url(#p077ee7b9ff)" style="fill: none; stroke: #66707b; stroke-width: 0.32; stroke-linejoin: miter"/>
   </g>
   <g id="patch_122">
    <path d="M 168.648716 362.280972
L 153.165854 374.470564
L 199.145263 374.470564
L 168.648716 362.280972
z
" clip-path="url(#p077ee7b9ff)" style="fill: none; stroke: #66707b; stroke-width: 0.32; stroke-linejoin: miter"/>
   </g>
   <g id="patch_123">
    <path d="M 245.124671 374.470564
L 229.641809 386.660157
L 275.621217 386.660157
L 245.124671 374.470564
z
" clip-path="url(#p077ee7b9ff)" style="fill: none; stroke: #66707b; stroke-width: 0.32; stroke-linejoin: miter"/>
   </g>
   <g id="patch_124">
    <path d="M 229.641809 386.660157
L 245.124671 374.470564
L 199.145263 374.470564
L 229.641809 386.660157
z
" clip-path="url(#p077ee7b9ff)" style="fill: none; stroke: #66707b; stroke-width: 0.32; stroke-linejoin: miter"/>
   </g>
   <g id="patch_125">
    <path d="M 214.628125 362.280972
L 199.145263 374.470564
L 245.124671 374.470564
L 214.628125 362.280972
z
" clip-path="url(#p077ee7b9ff)" style="fill: none; stroke: #66707b; stroke-width: 0.32; stroke-linejoin: miter"/>
   </g>
   <g id="patch_126">
    <path d="M 199.145263 374.470564
L 214.628125 362.280972
L 168.648716 362.280972
L 199.145263 374.470564
z
" clip-path="url(#p077ee7b9ff)" style="fill: none; stroke: #66707b; stroke-width: 0.32; stroke-linejoin: miter"/>
   </g>
   <g id="patch_127">
    <path d="M 184.131578 350.091379
L 168.648716 362.280972
L 214.628125 362.280972
L 184.131578 350.091379
z
" clip-path="url(#p077ee7b9ff)" style="fill: none; stroke: #66707b; stroke-width: 0.32; stroke-linejoin: miter"/>
   </g>
   <g id="patch_128">
    <path d="M 225.41921 317.585799
L 209.936348 329.775391
L 255.915757 329.775391
L 225.41921 317.585799
z
" clip-path="url(#p077ee7b9ff)" style="fill: none; stroke: #66707b; stroke-width: 0.32; stroke-linejoin: miter"/>
   </g>
   <g id="patch_129">
    <path d="M 271.398619 317.585799
L 255.915757 329.775391
L 301.895165 329.775391
L 271.398619 317.585799
z
" clip-path="url(#p077ee7b9ff)" style="fill: none; stroke: #66707b; stroke-width: 0.32; stroke-linejoin: miter"/>
   </g>
   <g id="patch_130">
    <path d="M 255.915757 329.775391
L 271.398619 317.585799
L 225.41921 317.585799
L 255.915757 329.775391
z
" clip-path="url(#p077ee7b9ff)" style="fill: none; stroke: #66707b; stroke-width: 0.32; stroke-linejoin: miter"/>
   </g>
   <g id="patch_131">
    <path d="M 240.902072 305.396206
L 225.41921 317.585799
L 271.398619 317.585799
L 240.902072 305.396206
z
" clip-path="url(#p077ee7b9ff)" style="fill: none; stroke: #66707b; stroke-width: 0.32; stroke-linejoin: miter"/>
   </g>
   <g id="patch_132">
    <path d="M 317.378027 317.585799
L 301.895165 329.775391
L 347.874573 329.775391
L 317.378027 317.585799
z
" clip-path="url(#p077ee7b9ff)" style="fill: none; stroke: #66707b; stroke-width: 0.32; stroke-linejoin: miter"/>
   </g>
   <g id="patch_133">
    <path d="M 301.895165 329.775391
L 317.378027 317.585799
L 271.398619 317.585799
L 301.895165 329.775391
z
" clip-path="url(#p077ee7b9ff)" style="fill: none; stroke: #66707b; stroke-width: 0.32; stroke-linejoin: miter"/>
   </g>
   <g id="patch_134">
    <path d="M 286.881481 305.396206
L 271.398619 317.585799
L 317.378027 317.585799
L 286.881481 305.396206
z
" clip-path="url(#p077ee7b9ff)" style="fill: none; stroke: #66707b; stroke-width: 0.32; stroke-linejoin: miter"/>
   </g>
   <g id="patch_135">
    <path d="M 271.398619 317.585799
L 286.881481 305.396206
L 240.902072 305.396206
L 271.398619 317.585799
z
" clip-path="url(#p077ee7b9ff)" style="fill: none; stroke: #66707b; stroke-width: 0.32; stroke-linejoin: miter"/>
   </g>
   <g id="patch_136">
    <path d="M 256.384934 293.206614
L 240.902072 305.396206
L 286.881481 305.396206
L 256.384934 293.206614
z
" clip-path="url(#p077ee7b9ff)" style="fill: none; stroke: #66707b; stroke-width: 0.32; stroke-linejoin: miter"/>
   </g>
   <g id="patch_137">
    <path d="M 297.672566 260.701034
L 282.189704 272.890626
L 328.169113 272.890626
L 297.672566 260.701034
z
" clip-path="url(#p077ee7b9ff)" style="fill: none; stroke: #66707b; stroke-width: 0.32; stroke-linejoin: miter"/>
   </g>
   <g id="patch_138">
    <path d="M 282.189704 272.890626
L 297.672566 260.701034
L 251.693158 260.701034
L 282.189704 272.890626
z
" clip-path="url(#p077ee7b9ff)" style="fill: none; stroke: #66707b; stroke-width: 0.32; stroke-linejoin: miter"/>
   </g>
   <g id="patch_139">
    <path d="M 267.17602 248.511441
L 251.693158 260.701034
L 297.672566 260.701034
L 267.17602 248.511441
z
" clip-path="url(#p077ee7b9ff)" style="fill: none; stroke: #66707b; stroke-width: 0.32; stroke-linejoin: miter"/>
   </g>
   <g id="patch_140">
    <path d="M 343.651975 260.701034
L 328.169113 272.890626
L 374.148521 272.890626
L 343.651975 260.701034
z
" clip-path="url(#p077ee7b9ff)" style="fill: none; stroke: #66707b; stroke-width: 0.32; stroke-linejoin: miter"/>
   </g>
   <g id="patch_141">
    <path d="M 328.169113 272.890626
L 343.651975 260.701034
L 297.672566 260.701034
L 328.169113 272.890626
z
" clip-path="url(#p077ee7b9ff)" style="fill: none; stroke: #66707b; stroke-width: 0.32; stroke-linejoin: miter"/>
   </g>
   <g id="patch_142">
    <path d="M 313.155428 248.511441
L 297.672566 260.701034
L 343.651975 260.701034
L 313.155428 248.511441
z
" clip-path="url(#p077ee7b9ff)" style="fill: none; stroke: #66707b; stroke-width: 0.32; stroke-linejoin: miter"/>
   </g>
   <g id="patch_143">
    <path d="M 297.672566 260.701034
L 313.155428 248.511441
L 267.17602 248.511441
L 297.672566 260.701034
z
" clip-path="url(#p077ee7b9ff)" style="fill: none; stroke: #66707b; stroke-width: 0.32; stroke-linejoin: miter"/>
   </g>
   <g id="patch_144">
    <path d="M 282.658882 236.321848
L 267.17602 248.511441
L 313.155428 248.511441
L 282.658882 236.321848
z
" clip-path="url(#p077ee7b9ff)" style="fill: none; stroke: #66707b; stroke-width: 0.32; stroke-linejoin: miter"/>
   </g>
   <g id="patch_145">
    <path d="M 256.384934 293.206614
L 253.569868 273.703266
L 230.580164 313.522601
L 256.384934 293.206614
z
" clip-path="url(#p077ee7b9ff)" style="fill: none; stroke: #66707b; stroke-width: 0.32; stroke-linejoin: miter"/>
   </g>
   <g id="patch_146">
    <path d="M 227.765098 294.019253
L 230.580164 313.522601
L 253.569868 273.703266
L 227.765098 294.019253
z
" clip-path="url(#p077ee7b9ff)" style="fill: none; stroke: #66707b; stroke-width: 0.32; stroke-linejoin: miter"/>
   </g>
   <g id="patch_147">
    <path d="M 230.580164 313.522601
L 227.765098 294.019253
L 204.775394 333.838589
L 230.580164 313.522601
z
" clip-path="url(#p077ee7b9ff)" style="fill: none; stroke: #66707b; stroke-width: 0.32; stroke-linejoin: miter"/>
   </g>
   <g id="patch_148">
    <path d="M 201.960328 314.335241
L 204.775394 333.838589
L 227.765098 294.019253
L 201.960328 314.335241
z
" clip-path="url(#p077ee7b9ff)" style="fill: none; stroke: #66707b; stroke-width: 0.32; stroke-linejoin: miter"/>
   </g>
   <g id="patch_149">
    <path d="M 204.775394 333.838589
L 201.960328 314.335241
L 178.970624 354.154576
L 204.775394 333.838589
z
" clip-path="url(#p077ee7b9ff)" style="fill: none; stroke: #66707b; stroke-width: 0.32; stroke-linejoin: miter"/>
   </g>
   <g id="patch_150">
    <path d="M 176.155558 334.651228
L 178.970624 354.154576
L 201.960328 314.335241
L 176.155558 334.651228
z
" clip-path="url(#p077ee7b9ff)" style="fill: none; stroke: #66707b; stroke-width: 0.32; stroke-linejoin: miter"/>
   </g>
   <g id="patch_151">
    <path d="M 178.970624 354.154576
L 176.155558 334.651228
L 153.165854 374.470564
L 178.970624 354.154576
z
" clip-path="url(#p077ee7b9ff)" style="fill: none; stroke: #66707b; stroke-width: 0.32; stroke-linejoin: miter"/>
   </g>
   <g id="patch_152">
    <path d="M 150.350788 354.967216
L 153.165854 374.470564
L 176.155558 334.651228
L 150.350788 354.967216
z
" clip-path="url(#p077ee7b9ff)" style="fill: none; stroke: #66707b; stroke-width: 0.32; stroke-linejoin: miter"/>
   </g>
   <g id="patch_153">
    <path d="M 153.165854 374.470564
L 150.350788 354.967216
L 127.361084 394.786552
L 153.165854 374.470564
z
" clip-path="url(#p077ee7b9ff)" style="fill: none; stroke: #66707b; stroke-width: 0.32; stroke-linejoin: miter"/>
   </g>
   <g id="patch_154">
    <path d="M 124.546018 375.283204
L 127.361084 394.786552
L 150.350788 354.967216
L 124.546018 375.283204
z
" clip-path="url(#p077ee7b9ff)" style="fill: none; stroke: #66707b; stroke-width: 0.32; stroke-linejoin: miter"/>
   </g>
   <g id="patch_155">
    <path d="M 127.361084 394.786552
L 124.546018 375.283204
L 101.556314 415.102539
L 127.361084 394.786552
z
" clip-path="url(#p077ee7b9ff)" style="fill: none; stroke: #66707b; stroke-width: 0.32; stroke-linejoin: miter"/>
   </g>
   <g id="patch_156">
    <path d="M 253.569868 273.703266
L 250.754803 254.199918
L 227.765098 294.019253
L 253.569868 273.703266
z
" clip-path="url(#p077ee7b9ff)" style="fill: none; stroke: #66707b; stroke-width: 0.32; stroke-linejoin: miter"/>
   </g>
   <g id="patch_157">
    <path d="M 224.950033 274.515905
L 227.765098 294.019253
L 250.754803 254.199918
L 224.950033 274.515905
z
" clip-path="url(#p077ee7b9ff)" style="fill: none; stroke: #66707b; stroke-width: 0.32; stroke-linejoin: miter"/>
   </g>
   <g id="patch_158">
    <path d="M 227.765098 294.019253
L 224.950033 274.515905
L 201.960328 314.335241
L 227.765098 294.019253
z
" clip-path="url(#p077ee7b9ff)" style="fill: none; stroke: #66707b; stroke-width: 0.32; stroke-linejoin: miter"/>
   </g>
   <g id="patch_159">
    <path d="M 199.145263 294.831893
L 201.960328 314.335241
L 224.950033 274.515905
L 199.145263 294.831893
z
" clip-path="url(#p077ee7b9ff)" style="fill: none; stroke: #66707b; stroke-width: 0.32; stroke-linejoin: miter"/>
   </g>
   <g id="patch_160">
    <path d="M 201.960328 314.335241
L 199.145263 294.831893
L 176.155558 334.651228
L 201.960328 314.335241
z
" clip-path="url(#p077ee7b9ff)" style="fill: none; stroke: #66707b; stroke-width: 0.32; stroke-linejoin: miter"/>
   </g>
   <g id="patch_161">
    <path d="M 173.340493 315.14788
L 176.155558 334.651228
L 199.145263 294.831893
L 173.340493 315.14788
z
" clip-path="url(#p077ee7b9ff)" style="fill: none; stroke: #66707b; stroke-width: 0.32; stroke-linejoin: miter"/>
   </g>
   <g id="patch_162">
    <path d="M 176.155558 334.651228
L 173.340493 315.14788
L 150.350788 354.967216
L 176.155558 334.651228
z
" clip-path="url(#p077ee7b9ff)" style="fill: none; stroke: #66707b; stroke-width: 0.32; stroke-linejoin: miter"/>
   </g>
   <g id="patch_163">
    <path d="M 147.535723 335.463868
L 150.350788 354.967216
L 173.340493 315.14788
L 147.535723 335.463868
z
" clip-path="url(#p077ee7b9ff)" style="fill: none; stroke: #66707b; stroke-width: 0.32; stroke-linejoin: miter"/>
   </g>
   <g id="patch_164">
    <path d="M 150.350788 354.967216
L 147.535723 335.463868
L 124.546018 375.283204
L 150.350788 354.967216
z
" clip-path="url(#p077ee7b9ff)" style="fill: none; stroke: #66707b; stroke-width: 0.32; stroke-linejoin: miter"/>
   </g>
   <g id="patch_165">
    <path d="M 250.754803 254.199918
L 247.939737 234.696569
L 224.950033 274.515905
L 250.754803 254.199918
z
" clip-path="url(#p077ee7b9ff)" style="fill: none; stroke: #66707b; stroke-width: 0.32; stroke-linejoin: miter"/>
   </g>
   <g id="patch_166">
    <path d="M 222.134967 255.012557
L 224.950033 274.515905
L 247.939737 234.696569
L 222.134967 255.012557
z
" clip-path="url(#p077ee7b9ff)" style="fill: none; stroke: #66707b; stroke-width: 0.32; stroke-linejoin: miter"/>
   </g>
   <g id="patch_167">
    <path d="M 224.950033 274.515905
L 222.134967 255.012557
L 199.145263 294.831893
L 224.950033 274.515905
z
" clip-path="url(#p077ee7b9ff)" style="fill: none; stroke: #66707b; stroke-width: 0.32; stroke-linejoin: miter"/>
   </g>
   <g id="patch_168">
    <path d="M 196.330197 275.328545
L 199.145263 294.831893
L 222.134967 255.012557
L 196.330197 275.328545
z
" clip-path="url(#p077ee7b9ff)" style="fill: none; stroke: #66707b; stroke-width: 0.32; stroke-linejoin: miter"/>
   </g>
   <g id="patch_169">
    <path d="M 199.145263 294.831893
L 196.330197 275.328545
L 173.340493 315.14788
L 199.145263 294.831893
z
" clip-path="url(#p077ee7b9ff)" style="fill: none; stroke: #66707b; stroke-width: 0.32; stroke-linejoin: miter"/>
   </g>
   <g id="patch_170">
    <path d="M 170.525427 295.644532
L 173.340493 315.14788
L 196.330197 275.328545
L 170.525427 295.644532
z
" clip-path="url(#p077ee7b9ff)" style="fill: none; stroke: #66707b; stroke-width: 0.32; stroke-linejoin: miter"/>
   </g>
   <g id="patch_171">
    <path d="M 173.340493 315.14788
L 170.525427 295.644532
L 147.535723 335.463868
L 173.340493 315.14788
z
" clip-path="url(#p077ee7b9ff)" style="fill: none; stroke: #66707b; stroke-width: 0.32; stroke-linejoin: miter"/>
   </g>
   <g id="patch_172">
    <path d="M 247.939737 234.696569
L 245.124671 215.193221
L 222.134967 255.012557
L 247.939737 234.696569
z
" clip-path="url(#p077ee7b9ff)" style="fill: none; stroke: #66707b; stroke-width: 0.32; stroke-linejoin: miter"/>
   </g>
   <g id="patch_173">
    <path d="M 219.319901 235.509209
L 222.134967 255.012557
L 245.124671 215.193221
L 219.319901 235.509209
z
" clip-path="url(#p077ee7b9ff)" style="fill: none; stroke: #66707b; stroke-width: 0.32; stroke-linejoin: miter"/>
   </g>
   <g id="patch_174">
    <path d="M 222.134967 255.012557
L 219.319901 235.509209
L 196.330197 275.328545
L 222.134967 255.012557
z
" clip-path="url(#p077ee7b9ff)" style="fill: none; stroke: #66707b; stroke-width: 0.32; stroke-linejoin: miter"/>
   </g>
   <g id="patch_175">
    <path d="M 193.515131 255.825197
L 196.330197 275.328545
L 219.319901 235.509209
L 193.515131 255.825197
z
" clip-path="url(#p077ee7b9ff)" style="fill: none; stroke: #66707b; stroke-width: 0.32; stroke-linejoin: miter"/>
   </g>
   <g id="patch_176">
    <path d="M 196.330197 275.328545
L 193.515131 255.825197
L 170.525427 295.644532
L 196.330197 275.328545
z
" clip-path="url(#p077ee7b9ff)" style="fill: none; stroke: #66707b; stroke-width: 0.32; stroke-linejoin: miter"/>
   </g>
   <g id="patch_177">
    <path d="M 245.124671 215.193221
L 242.309605 195.689873
L 219.319901 235.509209
L 245.124671 215.193221
z
" clip-path="url(#p077ee7b9ff)" style="fill: none; stroke: #66707b; stroke-width: 0.32; stroke-linejoin: miter"/>
   </g>
   <g id="patch_178">
    <path d="M 216.504835 216.005861
L 219.319901 235.509209
L 242.309605 195.689873
L 216.504835 216.005861
z
" clip-path="url(#p077ee7b9ff)" style="fill: none; stroke: #66707b; stroke-width: 0.32; stroke-linejoin: miter"/>
   </g>
   <g id="patch_179">
    <path d="M 219.319901 235.509209
L 216.504835 216.005861
L 193.515131 255.825197
L 219.319901 235.509209
z
" clip-path="url(#p077ee7b9ff)" style="fill: none; stroke: #66707b; stroke-width: 0.32; stroke-linejoin: miter"/>
   </g>
   <g id="patch_180">
    <path d="M 273.275329 171.310688
L 270.460263 151.80734
L 247.470559 191.626676
L 273.275329 171.310688
z
" clip-path="url(#p077ee7b9ff)" style="fill: none; stroke: #66707b; stroke-width: 0.32; stroke-linejoin: miter"/>
   </g>
   <g id="patch_181">
    <path d="M 244.655493 172.123328
L 247.470559 191.626676
L 270.460263 151.80734
L 244.655493 172.123328
z
" clip-path="url(#p077ee7b9ff)" style="fill: none; stroke: #66707b; stroke-width: 0.32; stroke-linejoin: miter"/>
   </g>
   <g id="patch_182">
    <path d="M 247.470559 191.626676
L 244.655493 172.123328
L 221.665789 211.942663
L 247.470559 191.626676
z
" clip-path="url(#p077ee7b9ff)" style="fill: none; stroke: #66707b; stroke-width: 0.32; stroke-linejoin: miter"/>
   </g>
   <g id="patch_183">
    <path d="M 218.850723 192.439315
L 221.665789 211.942663
L 244.655493 172.123328
L 218.850723 192.439315
z
" clip-path="url(#p077ee7b9ff)" style="fill: none; stroke: #66707b; stroke-width: 0.32; stroke-linejoin: miter"/>
   </g>
   <g id="patch_184">
    <path d="M 221.665789 211.942663
L 218.850723 192.439315
L 195.861019 232.258651
L 221.665789 211.942663
z
" clip-path="url(#p077ee7b9ff)" style="fill: none; stroke: #66707b; stroke-width: 0.32; stroke-linejoin: miter"/>
   </g>
   <g id="patch_185">
    <path d="M 193.045953 212.755303
L 195.861019 232.258651
L 218.850723 192.439315
L 193.045953 212.755303
z
" clip-path="url(#p077ee7b9ff)" style="fill: none; stroke: #66707b; stroke-width: 0.32; stroke-linejoin: miter"/>
   </g>
   <g id="patch_186">
    <path d="M 195.861019 232.258651
L 193.045953 212.755303
L 170.056249 252.574638
L 195.861019 232.258651
z
" clip-path="url(#p077ee7b9ff)" style="fill: none; stroke: #66707b; stroke-width: 0.32; stroke-linejoin: miter"/>
   </g>
   <g id="patch_187">
    <path d="M 167.241183 233.07129
L 170.056249 252.574638
L 193.045953 212.755303
L 167.241183 233.07129
z
" clip-path="url(#p077ee7b9ff)" style="fill: none; stroke: #66707b; stroke-width: 0.32; stroke-linejoin: miter"/>
   </g>
   <g id="patch_188">
    <path d="M 170.056249 252.574638
L 167.241183 233.07129
L 144.251479 272.890626
L 170.056249 252.574638
z
" clip-path="url(#p077ee7b9ff)" style="fill: none; stroke: #66707b; stroke-width: 0.32; stroke-linejoin: miter"/>
   </g>
   <g id="patch_189">
    <path d="M 270.460263 151.80734
L 267.645197 132.303992
L 244.655493 172.123328
L 270.460263 151.80734
z
" clip-path="url(#p077ee7b9ff)" style="fill: none; stroke: #66707b; stroke-width: 0.32; stroke-linejoin: miter"/>
   </g>
   <g id="patch_190">
    <path d="M 241.840427 152.61998
L 244.655493 172.123328
L 267.645197 132.303992
L 241.840427 152.61998
z
" clip-path="url(#p077ee7b9ff)" style="fill: none; stroke: #66707b; stroke-width: 0.32; stroke-linejoin: miter"/>
   </g>
   <g id="patch_191">
    <path d="M 244.655493 172.123328
L 241.840427 152.61998
L 218.850723 192.439315
L 244.655493 172.123328
z
" clip-path="url(#p077ee7b9ff)" style="fill: none; stroke: #66707b; stroke-width: 0.32; stroke-linejoin: miter"/>
   </g>
   <g id="patch_192">
    <path d="M 216.035657 172.935967
L 218.850723 192.439315
L 241.840427 152.61998
L 216.035657 172.935967
z
" clip-path="url(#p077ee7b9ff)" style="fill: none; stroke: #66707b; stroke-width: 0.32; stroke-linejoin: miter"/>
   </g>
   <g id="patch_193">
    <path d="M 218.850723 192.439315
L 216.035657 172.935967
L 193.045953 212.755303
L 218.850723 192.439315
z
" clip-path="url(#p077ee7b9ff)" style="fill: none; stroke: #66707b; stroke-width: 0.32; stroke-linejoin: miter"/>
   </g>
   <g id="patch_194">
    <path d="M 190.230887 193.251955
L 193.045953 212.755303
L 216.035657 172.935967
L 190.230887 193.251955
z
" clip-path="url(#p077ee7b9ff)" style="fill: none; stroke: #66707b; stroke-width: 0.32; stroke-linejoin: miter"/>
   </g>
   <g id="patch_195">
    <path d="M 193.045953 212.755303
L 190.230887 193.251955
L 167.241183 233.07129
L 193.045953 212.755303
z
" clip-path="url(#p077ee7b9ff)" style="fill: none; stroke: #66707b; stroke-width: 0.32; stroke-linejoin: miter"/>
   </g>
   <g id="patch_196">
    <path d="M 267.645197 132.303992
L 264.830132 112.800644
L 241.840427 152.61998
L 267.645197 132.303992
z
" clip-path="url(#p077ee7b9ff)" style="fill: none; stroke: #66707b; stroke-width: 0.32; stroke-linejoin: miter"/>
   </g>
   <g id="patch_197">
    <path d="M 239.025362 133.116631
L 241.840427 152.61998
L 264.830132 112.800644
L 239.025362 133.116631
z
" clip-path="url(#p077ee7b9ff)" style="fill: none; stroke: #66707b; stroke-width: 0.32; stroke-linejoin: miter"/>
   </g>
   <g id="patch_198">
    <path d="M 241.840427 152.61998
L 239.025362 133.116631
L 216.035657 172.935967
L 241.840427 152.61998
z
" clip-path="url(#p077ee7b9ff)" style="fill: none; stroke: #66707b; stroke-width: 0.32; stroke-linejoin: miter"/>
   </g>
   <g id="patch_199">
    <path d="M 213.220592 153.432619
L 216.035657 172.935967
L 239.025362 133.116631
L 213.220592 153.432619
z
" clip-path="url(#p077ee7b9ff)" style="fill: none; stroke: #66707b; stroke-width: 0.32; stroke-linejoin: miter"/>
   </g>
   <g id="patch_200">
    <path d="M 216.035657 172.935967
L 213.220592 153.432619
L 190.230887 193.251955
L 216.035657 172.935967
z
" clip-path="url(#p077ee7b9ff)" style="fill: none; stroke: #66707b; stroke-width: 0.32; stroke-linejoin: miter"/>
   </g>
   <g id="patch_201">
    <path d="M 264.830132 112.800644
L 262.015066 93.297296
L 239.025362 133.116631
L 264.830132 112.800644
z
" clip-path="url(#p077ee7b9ff)" style="fill: none; stroke: #66707b; stroke-width: 0.32; stroke-linejoin: miter"/>
   </g>
   <g id="patch_202">
    <path d="M 236.210296 113.613283
L 239.025362 133.116631
L 262.015066 93.297296
L 236.210296 113.613283
z
" clip-path="url(#p077ee7b9ff)" style="fill: none; stroke: #66707b; stroke-width: 0.32; stroke-linejoin: miter"/>
   </g>
   <g id="patch_203">
    <path d="M 239.025362 133.116631
L 236.210296 113.613283
L 213.220592 153.432619
L 239.025362 133.116631
z
" clip-path="url(#p077ee7b9ff)" style="fill: none; stroke: #66707b; stroke-width: 0.32; stroke-linejoin: miter"/>
   </g>
   <g id="patch_204">
    <path d="M 262.015066 93.297296
L 259.2 73.793948
L 236.210296 113.613283
L 262.015066 93.297296
z
" clip-path="url(#p077ee7b9ff)" style="fill: none; stroke: #66707b; stroke-width: 0.32; stroke-linejoin: miter"/>
   </g>
   <g id="patch_205">
    <path d="M 329.576645 322.461636
L 347.874573 329.775391
L 324.884869 289.956056
L 329.576645 322.461636
z
" clip-path="url(#p077ee7b9ff)" style="fill: none; stroke: #66707b; stroke-width: 0.32; stroke-linejoin: miter"/>
   </g>
   <g id="patch_206">
    <path d="M 324.884869 289.956056
L 306.586941 282.6423
L 329.576645 322.461636
L 324.884869 289.956056
z
" clip-path="url(#p077ee7b9ff)" style="fill: none; stroke: #66707b; stroke-width: 0.32; stroke-linejoin: miter"/>
   </g>
   <g id="patch_207">
    <path d="M 311.278718 315.14788
L 329.576645 322.461636
L 306.586941 282.6423
L 311.278718 315.14788
z
" clip-path="url(#p077ee7b9ff)" style="fill: none; stroke: #66707b; stroke-width: 0.32; stroke-linejoin: miter"/>
   </g>
   <g id="patch_208">
    <path d="M 306.586941 282.6423
L 288.289013 275.328545
L 311.278718 315.14788
L 306.586941 282.6423
z
" clip-path="url(#p077ee7b9ff)" style="fill: none; stroke: #66707b; stroke-width: 0.32; stroke-linejoin: miter"/>
   </g>
   <g id="patch_209">
    <path d="M 292.98079 307.834125
L 311.278718 315.14788
L 288.289013 275.328545
L 292.98079 307.834125
z
" clip-path="url(#p077ee7b9ff)" style="fill: none; stroke: #66707b; stroke-width: 0.32; stroke-linejoin: miter"/>
   </g>
   <g id="patch_210">
    <path d="M 288.289013 275.328545
L 269.991086 268.014789
L 292.98079 307.834125
L 288.289013 275.328545
z
" clip-path="url(#p077ee7b9ff)" style="fill: none; stroke: #66707b; stroke-width: 0.32; stroke-linejoin: miter"/>
   </g>
   <g id="patch_211">
    <path d="M 274.682862 300.520369
L 292.98079 307.834125
L 269.991086 268.014789
L 274.682862 300.520369
z
" clip-path="url(#p077ee7b9ff)" style="fill: none; stroke: #66707b; stroke-width: 0.32; stroke-linejoin: miter"/>
   </g>
   <g id="patch_212">
    <path d="M 269.991086 268.014789
L 251.693158 260.701034
L 274.682862 300.520369
L 269.991086 268.014789
z
" clip-path="url(#p077ee7b9ff)" style="fill: none; stroke: #66707b; stroke-width: 0.32; stroke-linejoin: miter"/>
   </g>
   <g id="patch_213">
    <path d="M 256.384934 293.206614
L 274.682862 300.520369
L 251.693158 260.701034
L 256.384934 293.206614
z
" clip-path="url(#p077ee7b9ff)" style="fill: none; stroke: #66707b; stroke-width: 0.32; stroke-linejoin: miter"/>
   </g>
   <g id="patch_214">
    <path d="M 355.850593 265.576871
L 374.148521 272.890626
L 351.158817 233.07129
L 355.850593 265.576871
z
" clip-path="url(#p077ee7b9ff)" style="fill: none; stroke: #66707b; stroke-width: 0.32; stroke-linejoin: miter"/>
   </g>
   <g id="patch_215">
    <path d="M 332.860889 225.757535
L 351.158817 233.07129
L 328.169113 193.251955
L 332.860889 225.757535
z
" clip-path="url(#p077ee7b9ff)" style="fill: none; stroke: #66707b; stroke-width: 0.32; stroke-linejoin: miter"/>
   </g>
   <g id="patch_216">
    <path d="M 351.158817 233.07129
L 332.860889 225.757535
L 355.850593 265.576871
L 351.158817 233.07129
z
" clip-path="url(#p077ee7b9ff)" style="fill: none; stroke: #66707b; stroke-width: 0.32; stroke-linejoin: miter"/>
   </g>
   <g id="patch_217">
    <path d="M 337.552665 258.263115
L 355.850593 265.576871
L 332.860889 225.757535
L 337.552665 258.263115
z
" clip-path="url(#p077ee7b9ff)" style="fill: none; stroke: #66707b; stroke-width: 0.32; stroke-linejoin: miter"/>
   </g>
   <g id="patch_218">
    <path d="M 309.871185 185.938199
L 328.169113 193.251955
L 305.179408 153.432619
L 309.871185 185.938199
z
" clip-path="url(#p077ee7b9ff)" style="fill: none; stroke: #66707b; stroke-width: 0.32; stroke-linejoin: miter"/>
   </g>
   <g id="patch_219">
    <path d="M 328.169113 193.251955
L 309.871185 185.938199
L 332.860889 225.757535
L 328.169113 193.251955
z
" clip-path="url(#p077ee7b9ff)" style="fill: none; stroke: #66707b; stroke-width: 0.32; stroke-linejoin: miter"/>
   </g>
   <g id="patch_220">
    <path d="M 314.562961 218.443779
L 332.860889 225.757535
L 309.871185 185.938199
L 314.562961 218.443779
z
" clip-path="url(#p077ee7b9ff)" style="fill: none; stroke: #66707b; stroke-width: 0.32; stroke-linejoin: miter"/>
   </g>
   <g id="patch_221">
    <path d="M 332.860889 225.757535
L 314.562961 218.443779
L 337.552665 258.263115
L 332.860889 225.757535
z
" clip-path="url(#p077ee7b9ff)" style="fill: none; stroke: #66707b; stroke-width: 0.32; stroke-linejoin: miter"/>
   </g>
   <g id="patch_222">
    <path d="M 319.254737 250.949359
L 337.552665 258.263115
L 314.562961 218.443779
L 319.254737 250.949359
z
" clip-path="url(#p077ee7b9ff)" style="fill: none; stroke: #66707b; stroke-width: 0.32; stroke-linejoin: miter"/>
   </g>
   <g id="patch_223">
    <path d="M 286.881481 146.118863
L 305.179408 153.432619
L 282.189704 113.613283
L 286.881481 146.118863
z
" clip-path="url(#p077ee7b9ff)" style="fill: none; stroke: #66707b; stroke-width: 0.32; stroke-linejoin: miter"/>
   </g>
   <g id="patch_224">
    <path d="M 305.179408 153.432619
L 286.881481 146.118863
L 309.871185 185.938199
L 305.179408 153.432619
z
" clip-path="url(#p077ee7b9ff)" style="fill: none; stroke: #66707b; stroke-width: 0.32; stroke-linejoin: miter"/>
   </g>
   <g id="patch_225">
    <path d="M 291.573257 178.624444
L 309.871185 185.938199
L 286.881481 146.118863
L 291.573257 178.624444
z
" clip-path="url(#p077ee7b9ff)" style="fill: none; stroke: #66707b; stroke-width: 0.32; stroke-linejoin: miter"/>
   </g>
   <g id="patch_226">
    <path d="M 309.871185 185.938199
L 291.573257 178.624444
L 314.562961 218.443779
L 309.871185 185.938199
z
" clip-path="url(#p077ee7b9ff)" style="fill: none; stroke: #66707b; stroke-width: 0.32; stroke-linejoin: miter"/>
   </g>
   <g id="patch_227">
    <path d="M 296.265033 211.130024
L 314.562961 218.443779
L 291.573257 178.624444
L 296.265033 211.130024
z
" clip-path="url(#p077ee7b9ff)" style="fill: none; stroke: #66707b; stroke-width: 0.32; stroke-linejoin: miter"/>
   </g>
   <g id="patch_228">
    <path d="M 314.562961 218.443779
L 296.265033 211.130024
L 319.254737 250.949359
L 314.562961 218.443779
z
" clip-path="url(#p077ee7b9ff)" style="fill: none; stroke: #66707b; stroke-width: 0.32; stroke-linejoin: miter"/>
   </g>
   <g id="patch_229">
    <path d="M 300.95681 243.635604
L 319.254737 250.949359
L 296.265033 211.130024
L 300.95681 243.635604
z
" clip-path="url(#p077ee7b9ff)" style="fill: none; stroke: #66707b; stroke-width: 0.32; stroke-linejoin: miter"/>
   </g>
   <g id="patch_230">
    <path d="M 263.891776 106.299528
L 282.189704 113.613283
L 259.2 73.793948
L 263.891776 106.299528
z
" clip-path="url(#p077ee7b9ff)" style="fill: none; stroke: #66707b; stroke-width: 0.32; stroke-linejoin: miter"/>
   </g>
   <g id="patch_231">
    <path d="M 282.189704 113.613283
L 263.891776 106.299528
L 286.881481 146.118863
L 282.189704 113.613283
z
" clip-path="url(#p077ee7b9ff)" style="fill: none; stroke: #66707b; stroke-width: 0.32; stroke-linejoin: miter"/>
   </g>
   <g id="patch_232">
    <path d="M 268.583553 138.805108
L 286.881481 146.118863
L 263.891776 106.299528
L 268.583553 138.805108
z
" clip-path="url(#p077ee7b9ff)" style="fill: none; stroke: #66707b; stroke-width: 0.32; stroke-linejoin: miter"/>
   </g>
   <g id="patch_233">
    <path d="M 286.881481 146.118863
L 268.583553 138.805108
L 291.573257 178.624444
L 286.881481 146.118863
z
" clip-path="url(#p077ee7b9ff)" style="fill: none; stroke: #66707b; stroke-width: 0.32; stroke-linejoin: miter"/>
   </g>
   <g id="patch_234">
    <path d="M 273.275329 171.310688
L 291.573257 178.624444
L 268.583553 138.805108
L 273.275329 171.310688
z
" clip-path="url(#p077ee7b9ff)" style="fill: none; stroke: #66707b; stroke-width: 0.32; stroke-linejoin: miter"/>
   </g>
   <g id="patch_235">
    <path d="M 291.573257 178.624444
L 273.275329 171.310688
L 296.265033 211.130024
L 291.573257 178.624444
z
" clip-path="url(#p077ee7b9ff)" style="fill: none; stroke: #66707b; stroke-width: 0.32; stroke-linejoin: miter"/>
   </g>
   <g id="patch_236">
    <path d="M 277.967105 203.816268
L 296.265033 211.130024
L 273.275329 171.310688
L 277.967105 203.816268
z
" clip-path="url(#p077ee7b9ff)" style="fill: none; stroke: #66707b; stroke-width: 0.32; stroke-linejoin: miter"/>
   </g>
   <g id="patch_237">
    <path d="M 296.265033 211.130024
L 277.967105 203.816268
L 300.95681 243.635604
L 296.265033 211.130024
z
" clip-path="url(#p077ee7b9ff)" style="fill: none; stroke: #66707b; stroke-width: 0.32; stroke-linejoin: miter"/>
   </g>
   <g id="patch_238">
    <path d="M 282.658882 236.321848
L 300.95681 243.635604
L 277.967105 203.816268
L 282.658882 236.321848
z
" clip-path="url(#p077ee7b9ff)" style="fill: none; stroke: #66707b; stroke-width: 0.32; stroke-linejoin: miter"/>
   </g>
   <g id="patch_239">
    <path d="M 301.425987 366.344169
L 257.323289 379.346401
L 275.621217 386.660157
L 301.425987 366.344169
z
" clip-path="url(#p077ee7b9ff)" style="fill: none; stroke: #66707b; stroke-width: 0.32; stroke-linejoin: miter"/>
   </g>
   <g id="patch_240">
    <path d="M 257.323289 379.346401
L 301.425987 366.344169
L 283.128059 359.030414
L 257.323289 379.346401
z
" clip-path="url(#p077ee7b9ff)" style="fill: none; stroke: #66707b; stroke-width: 0.32; stroke-linejoin: miter"/>
   </g>
   <g id="patch_241">
    <path d="M 283.128059 359.030414
L 239.025362 372.032646
L 257.323289 379.346401
L 283.128059 359.030414
z
" clip-path="url(#p077ee7b9ff)" style="fill: none; stroke: #66707b; stroke-width: 0.32; stroke-linejoin: miter"/>
   </g>
   <g id="patch_242">
    <path d="M 239.025362 372.032646
L 283.128059 359.030414
L 264.830132 351.716658
L 239.025362 372.032646
z
" clip-path="url(#p077ee7b9ff)" style="fill: none; stroke: #66707b; stroke-width: 0.32; stroke-linejoin: miter"/>
   </g>
   <g id="patch_243">
    <path d="M 264.830132 351.716658
L 220.727434 364.71889
L 239.025362 372.032646
L 264.830132 351.716658
z
" clip-path="url(#p077ee7b9ff)" style="fill: none; stroke: #66707b; stroke-width: 0.32; stroke-linejoin: miter"/>
   </g>
   <g id="patch_244">
    <path d="M 220.727434 364.71889
L 264.830132 351.716658
L 246.532204 344.402902
L 220.727434 364.71889
z
" clip-path="url(#p077ee7b9ff)" style="fill: none; stroke: #66707b; stroke-width: 0.32; stroke-linejoin: miter"/>
   </g>
   <g id="patch_245">
    <path d="M 246.532204 344.402902
L 202.429506 357.405134
L 220.727434 364.71889
L 246.532204 344.402902
z
" clip-path="url(#p077ee7b9ff)" style="fill: none; stroke: #66707b; stroke-width: 0.32; stroke-linejoin: miter"/>
   </g>
   <g id="patch_246">
    <path d="M 202.429506 357.405134
L 246.532204 344.402902
L 228.234276 337.089147
L 202.429506 357.405134
z
" clip-path="url(#p077ee7b9ff)" style="fill: none; stroke: #66707b; stroke-width: 0.32; stroke-linejoin: miter"/>
   </g>
   <g id="patch_247">
    <path d="M 228.234276 337.089147
L 184.131578 350.091379
L 202.429506 357.405134
L 228.234276 337.089147
z
" clip-path="url(#p077ee7b9ff)" style="fill: none; stroke: #66707b; stroke-width: 0.32; stroke-linejoin: miter"/>
   </g>
   <g id="patch_248">
    <path d="M 184.131578 350.091379
L 228.234276 337.089147
L 209.936348 329.775391
L 184.131578 350.091379
z
" clip-path="url(#p077ee7b9ff)" style="fill: none; stroke: #66707b; stroke-width: 0.32; stroke-linejoin: miter"/>
   </g>
   <g id="patch_249">
    <path d="M 277.967105 203.816268
L 267.17602 248.511441
L 282.658882 236.321848
L 277.967105 203.816268
z
" clip-path="url(#p077ee7b9ff)" style="fill: none; stroke: #66707b; stroke-width: 0.32; stroke-linejoin: miter"/>
   </g>
   <g id="patch_250">
    <path d="M 267.17602 248.511441
L 277.967105 203.816268
L 262.484243 216.005861
L 267.17602 248.511441
z
" clip-path="url(#p077ee7b9ff)" style="fill: none; stroke: #66707b; stroke-width: 0.32; stroke-linejoin: miter"/>
   </g>
   <g id="patch_251">
    <path d="M 273.275329 171.310688
L 262.484243 216.005861
L 277.967105 203.816268
L 273.275329 171.310688
z
" clip-path="url(#p077ee7b9ff)" style="fill: none; stroke: #66707b; stroke-width: 0.32; stroke-linejoin: miter"/>
   </g>
   <g id="patch_252">
    <path d="M 262.484243 216.005861
L 273.275329 171.310688
L 257.792467 183.500281
L 262.484243 216.005861
z
" clip-path="url(#p077ee7b9ff)" style="fill: none; stroke: #66707b; stroke-width: 0.32; stroke-linejoin: miter"/>
   </g>
   <g id="patch_253">
    <path d="M 262.484243 216.005861
L 251.693158 260.701034
L 267.17602 248.511441
L 262.484243 216.005861
z
" clip-path="url(#p077ee7b9ff)" style="fill: none; stroke: #66707b; stroke-width: 0.32; stroke-linejoin: miter"/>
   </g>
   <g id="patch_254">
    <path d="M 251.693158 260.701034
L 262.484243 216.005861
L 247.001381 228.195453
L 251.693158 260.701034
z
" clip-path="url(#p077ee7b9ff)" style="fill: none; stroke: #66707b; stroke-width: 0.32; stroke-linejoin: miter"/>
   </g>
   <g id="patch_255">
    <path d="M 257.792467 183.500281
L 247.001381 228.195453
L 262.484243 216.005861
L 257.792467 183.500281
z
" clip-path="url(#p077ee7b9ff)" style="fill: none; stroke: #66707b; stroke-width: 0.32; stroke-linejoin: miter"/>
   </g>
   <g id="patch_256">
    <path d="M 247.001381 228.195453
L 257.792467 183.500281
L 242.309605 195.689873
L 247.001381 228.195453
z
" clip-path="url(#p077ee7b9ff)" style="fill: none; stroke: #66707b; stroke-width: 0.32; stroke-linejoin: miter"/>
   </g>
   <g id="patch_257">
    <path d="M 315.032139 272.890626
L 347.874573 329.775391
L 406.990955 329.775391
L 374.148521 272.890626
L 315.032139 272.890626
z
" clip-path="url(#p077ee7b9ff)" style="fill: none; stroke: #182e40; stroke-width: 1.3; stroke-linejoin: miter"/>
   </g>
   <g id="patch_258">
    <path d="M 209.936348 329.775391
L 423.412173 415.102539
L 456.254607 415.102539
L 406.990955 329.775391
L 209.936348 329.775391
z
" clip-path="url(#p077ee7b9ff)" style="fill: none; stroke: #182e40; stroke-width: 1.3; stroke-linejoin: miter"/>
   </g>
   <g id="patch_259">
    <path d="M 62.145393 415.102539
L 101.556314 415.102539
L 216.504835 216.005861
L 144.251479 272.890626
L 62.145393 415.102539
z
" clip-path="url(#p077ee7b9ff)" style="fill: none; stroke: #182e40; stroke-width: 1.3; stroke-linejoin: miter"/>
   </g>
   <g id="patch_260">
    <path d="M 101.556314 415.102539
L 239.494539 415.102539
L 275.621217 386.660157
L 137.682992 386.660157
L 101.556314 415.102539
z
" clip-path="url(#p077ee7b9ff)" style="fill: none; stroke: #182e40; stroke-width: 1.3; stroke-linejoin: miter"/>
   </g>
   <g id="patch_261">
    <path d="M 282.189704 272.890626
L 324.884869 289.956056
L 315.032139 272.890626
L 282.189704 272.890626
z
" clip-path="url(#p077ee7b9ff)" style="fill: none; stroke: #182e40; stroke-width: 1.3; stroke-linejoin: miter"/>
   </g>
   <g id="patch_262">
    <path d="M 239.494539 415.102539
L 423.412173 415.102539
L 301.425987 366.344169
L 239.494539 415.102539
z
" clip-path="url(#p077ee7b9ff)" style="fill: none; stroke: #182e40; stroke-width: 1.3; stroke-linejoin: miter"/>
   </g>
   <g id="patch_263">
    <path d="M 137.682992 386.660157
L 275.621217 386.660157
L 184.131578 350.091379
L 137.682992 386.660157
z
" clip-path="url(#p077ee7b9ff)" style="fill: none; stroke: #182e40; stroke-width: 1.3; stroke-linejoin: miter"/>
   </g>
   <g id="patch_264">
    <path d="M 209.936348 329.775391
L 347.874573 329.775391
L 256.384934 293.206614
L 209.936348 329.775391
z
" clip-path="url(#p077ee7b9ff)" style="fill: none; stroke: #182e40; stroke-width: 1.3; stroke-linejoin: miter"/>
   </g>
   <g id="patch_265">
    <path d="M 251.693158 260.701034
L 282.189704 272.890626
L 374.148521 272.890626
L 282.658882 236.321848
L 251.693158 260.701034
z
" clip-path="url(#p077ee7b9ff)" style="fill: none; stroke: #182e40; stroke-width: 1.3; stroke-linejoin: miter"/>
   </g>
   <g id="patch_266">
    <path d="M 101.556314 415.102539
L 256.384934 293.206614
L 242.309605 195.689873
L 216.504835 216.005861
L 101.556314 415.102539
z
" clip-path="url(#p077ee7b9ff)" style="fill: none; stroke: #182e40; stroke-width: 1.3; stroke-linejoin: miter"/>
   </g>
   <g id="patch_267">
    <path d="M 144.251479 272.890626
L 273.275329 171.310688
L 259.2 73.793948
L 144.251479 272.890626
z
" clip-path="url(#p077ee7b9ff)" style="fill: none; stroke: #182e40; stroke-width: 1.3; stroke-linejoin: miter"/>
   </g>
   <g id="patch_268">
    <path d="M 251.693158 260.701034
L 256.384934 293.206614
L 347.874573 329.775391
L 324.884869 289.956056
L 251.693158 260.701034
z
" clip-path="url(#p077ee7b9ff)" style="fill: none; stroke: #182e40; stroke-width: 1.3; stroke-linejoin: miter"/>
   </g>
   <g id="patch_269">
    <path d="M 259.2 73.793948
L 282.658882 236.321848
L 374.148521 272.890626
L 259.2 73.793948
z
" clip-path="url(#p077ee7b9ff)" style="fill: none; stroke: #182e40; stroke-width: 1.3; stroke-linejoin: miter"/>
   </g>
   <g id="patch_270">
    <path d="M 184.131578 350.091379
L 275.621217 386.660157
L 301.425987 366.344169
L 209.936348 329.775391
L 184.131578 350.091379
z
" clip-path="url(#p077ee7b9ff)" style="fill: none; stroke: #182e40; stroke-width: 1.3; stroke-linejoin: miter"/>
   </g>
   <g id="patch_271">
    <path d="M 242.309605 195.689873
L 251.693158 260.701034
L 282.658882 236.321848
L 273.275329 171.310688
L 242.309605 195.689873
z
" clip-path="url(#p077ee7b9ff)" style="fill: none; stroke: #182e40; stroke-width: 1.3; stroke-linejoin: miter"/>
   </g>
   <g id="text_1">
    <g id="patch_272">
     <path d="M 353.053735 307.172071
L 368.96936 307.172071
L 368.96936 295.493946
L 353.053735 295.493946
z
" style="fill: #ffffff; opacity: 0.75"/>
    </g>
    <!-- 12 -->
    <g style="fill: #142634" transform="translate(354.053735 304.092384) scale(0.1 -0.1)">
     <defs>
      <path id="DejaVuSans-Bold-31" d="M 750 831
L 1813 831
L 1813 3847
L 722 3622
L 722 4441
L 1806 4666
L 2950 4666
L 2950 831
L 4013 831
L 4013 0
L 750 0
L 750 831
z
" transform="scale(0.015625)"/>
      <path id="DejaVuSans-Bold-32" d="M 1844 884
L 3897 884
L 3897 0
L 506 0
L 506 884
L 2209 2388
Q 2438 2594 2547 2791
Q 2656 2988 2656 3200
Q 2656 3528 2436 3728
Q 2216 3928 1850 3928
Q 1569 3928 1234 3808
Q 900 3688 519 3450
L 519 4475
Q 925 4609 1322 4679
Q 1719 4750 2100 4750
Q 2938 4750 3402 4381
Q 3866 4013 3866 3353
Q 3866 2972 3669 2642
Q 3472 2313 2841 1759
L 1844 884
z
" transform="scale(0.015625)"/>
     </defs>
     <use xlink:href="#DejaVuSans-Bold-31"/>
     <use xlink:href="#DejaVuSans-Bold-32" transform="translate(69.580078 0)"/>
    </g>
   </g>
   <g id="text_2">
    <g id="patch_273">
     <path d="M 350.551454 368.120034
L 366.467079 368.120034
L 366.467079 356.441909
L 350.551454 356.441909
z
" style="fill: #ffffff; opacity: 0.75"/>
    </g>
    <!-- 35 -->
    <g style="fill: #142634" transform="translate(351.551454 365.040347) scale(0.1 -0.1)">
     <defs>
      <path id="DejaVuSans-Bold-33" d="M 2981 2516
Q 3453 2394 3698 2092
Q 3944 1791 3944 1325
Q 3944 631 3412 270
Q 2881 -91 1863 -91
Q 1503 -91 1142 -33
Q 781 25 428 141
L 428 1069
Q 766 900 1098 814
Q 1431 728 1753 728
Q 2231 728 2486 893
Q 2741 1059 2741 1369
Q 2741 1688 2480 1852
Q 2219 2016 1709 2016
L 1228 2016
L 1228 2791
L 1734 2791
Q 2188 2791 2409 2933
Q 2631 3075 2631 3366
Q 2631 3634 2415 3781
Q 2200 3928 1806 3928
Q 1516 3928 1219 3862
Q 922 3797 628 3669
L 628 4550
Q 984 4650 1334 4700
Q 1684 4750 2022 4750
Q 2931 4750 3382 4451
Q 3834 4153 3834 3553
Q 3834 3144 3618 2883
Q 3403 2622 2981 2516
z
" transform="scale(0.015625)"/>
      <path id="DejaVuSans-Bold-35" d="M 678 4666
L 3669 4666
L 3669 3781
L 1638 3781
L 1638 3059
Q 1775 3097 1914 3117
Q 2053 3138 2203 3138
Q 3056 3138 3531 2711
Q 4006 2284 4006 1522
Q 4006 766 3489 337
Q 2972 -91 2053 -91
Q 1656 -91 1267 -14
Q 878 63 494 219
L 494 1166
Q 875 947 1217 837
Q 1559 728 1863 728
Q 2300 728 2551 942
Q 2803 1156 2803 1522
Q 2803 1891 2551 2103
Q 2300 2316 1863 2316
Q 1603 2316 1309 2248
Q 1016 2181 678 2041
L 678 4666
z
" transform="scale(0.015625)"/>
     </defs>
     <use xlink:href="#DejaVuSans-Bold-33"/>
     <use xlink:href="#DejaVuSans-Bold-35" transform="translate(69.580078 0)"/>
    </g>
   </g>
   <g id="text_3">
    <g id="patch_274">
     <path d="M 124.707586 334.824388
L 140.623211 334.824388
L 140.623211 323.146263
L 124.707586 323.146263
z
" style="fill: #ffffff; opacity: 0.75"/>
    </g>
    <!-- 24 -->
    <g style="fill: #142634" transform="translate(125.707586 331.7447) scale(0.1 -0.1)">
     <defs>
      <path id="DejaVuSans-Bold-34" d="M 2356 3675
L 1038 1722
L 2356 1722
L 2356 3675
z
M 2156 4666
L 3494 4666
L 3494 1722
L 4159 1722
L 4159 850
L 3494 850
L 3494 0
L 2356 0
L 2356 850
L 288 850
L 288 1881
L 2156 4666
z
" transform="scale(0.015625)"/>
     </defs>
     <use xlink:href="#DejaVuSans-Bold-32"/>
     <use xlink:href="#DejaVuSans-Bold-34" transform="translate(69.580078 0)"/>
    </g>
   </g>
   <g id="text_4">
    <g id="patch_275">
     <path d="M 180.630953 406.72041
L 196.546578 406.72041
L 196.546578 395.042285
L 180.630953 395.042285
z
" style="fill: #ffffff; opacity: 0.75"/>
    </g>
    <!-- 14 -->
    <g style="fill: #142634" transform="translate(181.630953 403.640723) scale(0.1 -0.1)">
     <use xlink:href="#DejaVuSans-Bold-31"/>
     <use xlink:href="#DejaVuSans-Bold-34" transform="translate(69.580078 0)"/>
    </g>
   </g>
   <g id="text_5">
    <g id="patch_276">
     <path d="M 303.625779 283.410353
L 311.112029 283.410353
L 311.112029 273.747853
L 303.625779 273.747853
z
" style="fill: #ffffff; opacity: 0.75"/>
    </g>
    <!-- 1 -->
    <g style="fill: #142634" transform="translate(304.585779 280.786603) scale(0.08 -0.08)">
     <use xlink:href="#DejaVuSans-Bold-31"/>
    </g>
   </g>
   <g id="text_6">
    <g id="patch_277">
     <path d="M 313.486421 404.688812
L 329.402046 404.688812
L 329.402046 393.010687
L 313.486421 393.010687
z
" style="fill: #ffffff; opacity: 0.75"/>
    </g>
    <!-- 16 -->
    <g style="fill: #142634" transform="translate(314.486421 401.609124) scale(0.1 -0.1)">
     <defs>
      <path id="DejaVuSans-Bold-36" d="M 2316 2303
Q 2000 2303 1842 2098
Q 1684 1894 1684 1484
Q 1684 1075 1842 870
Q 2000 666 2316 666
Q 2634 666 2792 870
Q 2950 1075 2950 1484
Q 2950 1894 2792 2098
Q 2634 2303 2316 2303
z
M 3803 4544
L 3803 3681
Q 3506 3822 3243 3889
Q 2981 3956 2731 3956
Q 2194 3956 1894 3657
Q 1594 3359 1544 2772
Q 1750 2925 1990 3001
Q 2231 3078 2516 3078
Q 3231 3078 3670 2659
Q 4109 2241 4109 1563
Q 4109 813 3618 361
Q 3128 -91 2303 -91
Q 1394 -91 895 523
Q 397 1138 397 2266
Q 397 3422 980 4083
Q 1563 4744 2578 4744
Q 2900 4744 3203 4694
Q 3506 4644 3803 4544
z
" transform="scale(0.015625)"/>
     </defs>
     <use xlink:href="#DejaVuSans-Bold-31"/>
     <use xlink:href="#DejaVuSans-Bold-36" transform="translate(69.580078 0)"/>
    </g>
   </g>
   <g id="text_7">
    <g id="patch_278">
     <path d="M 194.666356 380.309627
L 203.624169 380.309627
L 203.624169 368.631502
L 194.666356 368.631502
z
" style="fill: #ffffff; opacity: 0.75"/>
    </g>
    <!-- 9 -->
    <g style="fill: #142634" transform="translate(195.666356 377.229939) scale(0.1 -0.1)">
     <defs>
      <path id="DejaVuSans-Bold-39" d="M 641 103
L 641 966
Q 928 831 1190 764
Q 1453 697 1709 697
Q 2247 697 2547 995
Q 2847 1294 2900 1881
Q 2688 1725 2447 1647
Q 2206 1569 1925 1569
Q 1209 1569 770 1986
Q 331 2403 331 3084
Q 331 3838 820 4291
Q 1309 4744 2131 4744
Q 3044 4744 3544 4128
Q 4044 3513 4044 2388
Q 4044 1231 3459 570
Q 2875 -91 1856 -91
Q 1528 -91 1228 -42
Q 928 6 641 103
z
M 2125 2350
Q 2441 2350 2600 2554
Q 2759 2759 2759 3169
Q 2759 3575 2600 3781
Q 2441 3988 2125 3988
Q 1809 3988 1650 3781
Q 1491 3575 1491 3169
Q 1491 2759 1650 2554
Q 1809 2350 2125 2350
z
" transform="scale(0.015625)"/>
     </defs>
     <use xlink:href="#DejaVuSans-Bold-39"/>
    </g>
   </g>
   <g id="text_8">
    <g id="patch_279">
     <path d="M 266.919712 323.424861
L 275.877525 323.424861
L 275.877525 311.746736
L 266.919712 311.746736
z
" style="fill: #ffffff; opacity: 0.75"/>
    </g>
    <!-- 9 -->
    <g style="fill: #142634" transform="translate(267.919712 320.345174) scale(0.1 -0.1)">
     <use xlink:href="#DejaVuSans-Bold-39"/>
    </g>
   </g>
   <g id="text_9">
    <g id="patch_280">
     <path d="M 298.315516 265.524297
L 307.273328 265.524297
L 307.273328 253.846172
L 298.315516 253.846172
z
" style="fill: #ffffff; opacity: 0.75"/>
    </g>
    <!-- 8 -->
    <g style="fill: #142634" transform="translate(299.315516 262.444609) scale(0.1 -0.1)">
     <defs>
      <path id="DejaVuSans-Bold-38" d="M 2228 2088
Q 1891 2088 1709 1903
Q 1528 1719 1528 1375
Q 1528 1031 1709 848
Q 1891 666 2228 666
Q 2563 666 2741 848
Q 2919 1031 2919 1375
Q 2919 1722 2741 1905
Q 2563 2088 2228 2088
z
M 1350 2484
Q 925 2613 709 2878
Q 494 3144 494 3541
Q 494 4131 934 4440
Q 1375 4750 2228 4750
Q 3075 4750 3515 4442
Q 3956 4134 3956 3541
Q 3956 3144 3739 2878
Q 3522 2613 3097 2484
Q 3572 2353 3814 2058
Q 4056 1763 4056 1313
Q 4056 619 3595 264
Q 3134 -91 2228 -91
Q 1319 -91 855 264
Q 391 619 391 1313
Q 391 1763 633 2058
Q 875 2353 1350 2484
z
M 1631 3419
Q 1631 3141 1786 2991
Q 1941 2841 2228 2841
Q 2509 2841 2662 2991
Q 2816 3141 2816 3419
Q 2816 3697 2662 3845
Q 2509 3994 2228 3994
Q 1941 3994 1786 3844
Q 1631 3694 1631 3419
z
" transform="scale(0.015625)"/>
     </defs>
     <use xlink:href="#DejaVuSans-Bold-38"/>
    </g>
   </g>
   <g id="text_10">
    <g id="patch_281">
     <path d="M 190.226753 303.495845
L 206.142378 303.495845
L 206.142378 291.81772
L 190.226753 291.81772
z
" style="fill: #ffffff; opacity: 0.75"/>
    </g>
    <!-- 35 -->
    <g style="fill: #142634" transform="translate(191.226753 300.416157) scale(0.1 -0.1)">
     <use xlink:href="#DejaVuSans-Bold-33"/>
     <use xlink:href="#DejaVuSans-Bold-35" transform="translate(69.580078 0)"/>
    </g>
   </g>
   <g id="text_11">
    <g id="patch_282">
     <path d="M 217.61779 178.50415
L 233.533415 178.50415
L 233.533415 166.826025
L 217.61779 166.826025
z
" style="fill: #ffffff; opacity: 0.75"/>
    </g>
    <!-- 25 -->
    <g style="fill: #142634" transform="translate(218.61779 175.424462) scale(0.1 -0.1)">
     <use xlink:href="#DejaVuSans-Bold-32"/>
     <use xlink:href="#DejaVuSans-Bold-35" transform="translate(69.580078 0)"/>
    </g>
   </g>
   <g id="text_12">
    <g id="patch_283">
     <path d="M 290.986787 299.918511
L 299.9446 299.918511
L 299.9446 288.240386
L 290.986787 288.240386
z
" style="fill: #ffffff; opacity: 0.75"/>
    </g>
    <!-- 9 -->
    <g style="fill: #142634" transform="translate(291.986787 296.838824) scale(0.1 -0.1)">
     <use xlink:href="#DejaVuSans-Bold-39"/>
    </g>
   </g>
   <g id="text_13">
    <g id="patch_284">
     <path d="M 297.377988 200.174537
L 313.293613 200.174537
L 313.293613 188.496412
L 297.377988 188.496412
z
" style="fill: #ffffff; opacity: 0.75"/>
    </g>
    <!-- 25 -->
    <g style="fill: #142634" transform="translate(298.377988 197.094849) scale(0.1 -0.1)">
     <use xlink:href="#DejaVuSans-Bold-32"/>
     <use xlink:href="#DejaVuSans-Bold-35" transform="translate(69.580078 0)"/>
    </g>
   </g>
   <g id="text_14">
    <g id="patch_285">
     <path d="M 234.82097 364.056837
L 250.736595 364.056837
L 250.736595 352.378712
L 234.82097 352.378712
z
" style="fill: #ffffff; opacity: 0.75"/>
    </g>
    <!-- 10 -->
    <g style="fill: #142634" transform="translate(235.82097 360.977149) scale(0.1 -0.1)">
     <defs>
      <path id="DejaVuSans-Bold-30" d="M 2944 2338
Q 2944 3213 2780 3570
Q 2616 3928 2228 3928
Q 1841 3928 1675 3570
Q 1509 3213 1509 2338
Q 1509 1453 1675 1090
Q 1841 728 2228 728
Q 2613 728 2778 1090
Q 2944 1453 2944 2338
z
M 4147 2328
Q 4147 1169 3647 539
Q 3147 -91 2228 -91
Q 1306 -91 806 539
Q 306 1169 306 2328
Q 306 3491 806 4120
Q 1306 4750 2228 4750
Q 3147 4750 3647 4120
Q 4147 3491 4147 2328
z
" transform="scale(0.015625)"/>
     </defs>
     <use xlink:href="#DejaVuSans-Bold-31"/>
     <use xlink:href="#DejaVuSans-Bold-30" transform="translate(69.580078 0)"/>
    </g>
   </g>
   <g id="text_15">
    <g id="patch_286">
     <path d="M 258.005337 221.844923
L 266.96315 221.844923
L 266.96315 210.166798
L 258.005337 210.166798
z
" style="fill: #ffffff; opacity: 0.75"/>
    </g>
    <!-- 8 -->
    <g style="fill: #142634" transform="translate(259.005337 218.765236) scale(0.1 -0.1)">
     <use xlink:href="#DejaVuSans-Bold-38"/>
    </g>
   </g>
   <g id="text_16">
    <!-- 240 tiles in fifteen convex grid regions -->
    <g style="fill: #142b3b" transform="translate(114.820312 31.52) scale(0.15 -0.15)">
     <defs>
      <path id="DejaVuSans-32" d="M 1228 531
L 3431 531
L 3431 0
L 469 0
L 469 531
Q 828 903 1448 1529
Q 2069 2156 2228 2338
Q 2531 2678 2651 2914
Q 2772 3150 2772 3378
Q 2772 3750 2511 3984
Q 2250 4219 1831 4219
Q 1534 4219 1204 4116
Q 875 4013 500 3803
L 500 4441
Q 881 4594 1212 4672
Q 1544 4750 1819 4750
Q 2544 4750 2975 4387
Q 3406 4025 3406 3419
Q 3406 3131 3298 2873
Q 3191 2616 2906 2266
Q 2828 2175 2409 1742
Q 1991 1309 1228 531
z
" transform="scale(0.015625)"/>
      <path id="DejaVuSans-34" d="M 2419 4116
L 825 1625
L 2419 1625
L 2419 4116
z
M 2253 4666
L 3047 4666
L 3047 1625
L 3713 1625
L 3713 1100
L 3047 1100
L 3047 0
L 2419 0
L 2419 1100
L 313 1100
L 313 1709
L 2253 4666
z
" transform="scale(0.015625)"/>
      <path id="DejaVuSans-30" d="M 2034 4250
Q 1547 4250 1301 3770
Q 1056 3291 1056 2328
Q 1056 1369 1301 889
Q 1547 409 2034 409
Q 2525 409 2770 889
Q 3016 1369 3016 2328
Q 3016 3291 2770 3770
Q 2525 4250 2034 4250
z
M 2034 4750
Q 2819 4750 3233 4129
Q 3647 3509 3647 2328
Q 3647 1150 3233 529
Q 2819 -91 2034 -91
Q 1250 -91 836 529
Q 422 1150 422 2328
Q 422 3509 836 4129
Q 1250 4750 2034 4750
z
" transform="scale(0.015625)"/>
      <path id="DejaVuSans-20" transform="scale(0.015625)"/>
      <path id="DejaVuSans-74" d="M 1172 4494
L 1172 3500
L 2356 3500
L 2356 3053
L 1172 3053
L 1172 1153
Q 1172 725 1289 603
Q 1406 481 1766 481
L 2356 481
L 2356 0
L 1766 0
Q 1100 0 847 248
Q 594 497 594 1153
L 594 3053
L 172 3053
L 172 3500
L 594 3500
L 594 4494
L 1172 4494
z
" transform="scale(0.015625)"/>
      <path id="DejaVuSans-69" d="M 603 3500
L 1178 3500
L 1178 0
L 603 0
L 603 3500
z
M 603 4863
L 1178 4863
L 1178 4134
L 603 4134
L 603 4863
z
" transform="scale(0.015625)"/>
      <path id="DejaVuSans-6c" d="M 603 4863
L 1178 4863
L 1178 0
L 603 0
L 603 4863
z
" transform="scale(0.015625)"/>
      <path id="DejaVuSans-65" d="M 3597 1894
L 3597 1613
L 953 1613
Q 991 1019 1311 708
Q 1631 397 2203 397
Q 2534 397 2845 478
Q 3156 559 3463 722
L 3463 178
Q 3153 47 2828 -22
Q 2503 -91 2169 -91
Q 1331 -91 842 396
Q 353 884 353 1716
Q 353 2575 817 3079
Q 1281 3584 2069 3584
Q 2775 3584 3186 3129
Q 3597 2675 3597 1894
z
M 3022 2063
Q 3016 2534 2758 2815
Q 2500 3097 2075 3097
Q 1594 3097 1305 2825
Q 1016 2553 972 2059
L 3022 2063
z
" transform="scale(0.015625)"/>
      <path id="DejaVuSans-73" d="M 2834 3397
L 2834 2853
Q 2591 2978 2328 3040
Q 2066 3103 1784 3103
Q 1356 3103 1142 2972
Q 928 2841 928 2578
Q 928 2378 1081 2264
Q 1234 2150 1697 2047
L 1894 2003
Q 2506 1872 2764 1633
Q 3022 1394 3022 966
Q 3022 478 2636 193
Q 2250 -91 1575 -91
Q 1294 -91 989 -36
Q 684 19 347 128
L 347 722
Q 666 556 975 473
Q 1284 391 1588 391
Q 1994 391 2212 530
Q 2431 669 2431 922
Q 2431 1156 2273 1281
Q 2116 1406 1581 1522
L 1381 1569
Q 847 1681 609 1914
Q 372 2147 372 2553
Q 372 3047 722 3315
Q 1072 3584 1716 3584
Q 2034 3584 2315 3537
Q 2597 3491 2834 3397
z
" transform="scale(0.015625)"/>
      <path id="DejaVuSans-6e" d="M 3513 2113
L 3513 0
L 2938 0
L 2938 2094
Q 2938 2591 2744 2837
Q 2550 3084 2163 3084
Q 1697 3084 1428 2787
Q 1159 2491 1159 1978
L 1159 0
L 581 0
L 581 3500
L 1159 3500
L 1159 2956
Q 1366 3272 1645 3428
Q 1925 3584 2291 3584
Q 2894 3584 3203 3211
Q 3513 2838 3513 2113
z
" transform="scale(0.015625)"/>
      <path id="DejaVuSans-66" d="M 2375 4863
L 2375 4384
L 1825 4384
Q 1516 4384 1395 4259
Q 1275 4134 1275 3809
L 1275 3500
L 2222 3500
L 2222 3053
L 1275 3053
L 1275 0
L 697 0
L 697 3053
L 147 3053
L 147 3500
L 697 3500
L 697 3744
Q 697 4328 969 4595
Q 1241 4863 1831 4863
L 2375 4863
z
" transform="scale(0.015625)"/>
      <path id="DejaVuSans-63" d="M 3122 3366
L 3122 2828
Q 2878 2963 2633 3030
Q 2388 3097 2138 3097
Q 1578 3097 1268 2742
Q 959 2388 959 1747
Q 959 1106 1268 751
Q 1578 397 2138 397
Q 2388 397 2633 464
Q 2878 531 3122 666
L 3122 134
Q 2881 22 2623 -34
Q 2366 -91 2075 -91
Q 1284 -91 818 406
Q 353 903 353 1747
Q 353 2603 823 3093
Q 1294 3584 2113 3584
Q 2378 3584 2631 3529
Q 2884 3475 3122 3366
z
" transform="scale(0.015625)"/>
      <path id="DejaVuSans-6f" d="M 1959 3097
Q 1497 3097 1228 2736
Q 959 2375 959 1747
Q 959 1119 1226 758
Q 1494 397 1959 397
Q 2419 397 2687 759
Q 2956 1122 2956 1747
Q 2956 2369 2687 2733
Q 2419 3097 1959 3097
z
M 1959 3584
Q 2709 3584 3137 3096
Q 3566 2609 3566 1747
Q 3566 888 3137 398
Q 2709 -91 1959 -91
Q 1206 -91 779 398
Q 353 888 353 1747
Q 353 2609 779 3096
Q 1206 3584 1959 3584
z
" transform="scale(0.015625)"/>
      <path id="DejaVuSans-76" d="M 191 3500
L 800 3500
L 1894 563
L 2988 3500
L 3597 3500
L 2284 0
L 1503 0
L 191 3500
z
" transform="scale(0.015625)"/>
      <path id="DejaVuSans-78" d="M 3513 3500
L 2247 1797
L 3578 0
L 2900 0
L 1881 1375
L 863 0
L 184 0
L 1544 1831
L 300 3500
L 978 3500
L 1906 2253
L 2834 3500
L 3513 3500
z
" transform="scale(0.015625)"/>
      <path id="DejaVuSans-67" d="M 2906 1791
Q 2906 2416 2648 2759
Q 2391 3103 1925 3103
Q 1463 3103 1205 2759
Q 947 2416 947 1791
Q 947 1169 1205 825
Q 1463 481 1925 481
Q 2391 481 2648 825
Q 2906 1169 2906 1791
z
M 3481 434
Q 3481 -459 3084 -895
Q 2688 -1331 1869 -1331
Q 1566 -1331 1297 -1286
Q 1028 -1241 775 -1147
L 775 -588
Q 1028 -725 1275 -790
Q 1522 -856 1778 -856
Q 2344 -856 2625 -561
Q 2906 -266 2906 331
L 2906 616
Q 2728 306 2450 153
Q 2172 0 1784 0
Q 1141 0 747 490
Q 353 981 353 1791
Q 353 2603 747 3093
Q 1141 3584 1784 3584
Q 2172 3584 2450 3431
Q 2728 3278 2906 2969
L 2906 3500
L 3481 3500
L 3481 434
z
" transform="scale(0.015625)"/>
      <path id="DejaVuSans-72" d="M 2631 2963
Q 2534 3019 2420 3045
Q 2306 3072 2169 3072
Q 1681 3072 1420 2755
Q 1159 2438 1159 1844
L 1159 0
L 581 0
L 581 3500
L 1159 3500
L 1159 2956
Q 1341 3275 1631 3429
Q 1922 3584 2338 3584
Q 2397 3584 2469 3576
Q 2541 3569 2628 3553
L 2631 2963
z
" transform="scale(0.015625)"/>
      <path id="DejaVuSans-64" d="M 2906 2969
L 2906 4863
L 3481 4863
L 3481 0
L 2906 0
L 2906 525
Q 2725 213 2448 61
Q 2172 -91 1784 -91
Q 1150 -91 751 415
Q 353 922 353 1747
Q 353 2572 751 3078
Q 1150 3584 1784 3584
Q 2172 3584 2448 3432
Q 2725 3281 2906 2969
z
M 947 1747
Q 947 1113 1208 752
Q 1469 391 1925 391
Q 2381 391 2643 752
Q 2906 1113 2906 1747
Q 2906 2381 2643 2742
Q 2381 3103 1925 3103
Q 1469 3103 1208 2742
Q 947 2381 947 1747
z
" transform="scale(0.015625)"/>
     </defs>
     <use xlink:href="#DejaVuSans-32"/>
     <use xlink:href="#DejaVuSans-34" transform="translate(63.623047 0)"/>
     <use xlink:href="#DejaVuSans-30" transform="translate(127.246094 0)"/>
     <use xlink:href="#DejaVuSans-20" transform="translate(190.869141 0)"/>
     <use xlink:href="#DejaVuSans-74" transform="translate(222.65625 0)"/>
     <use xlink:href="#DejaVuSans-69" transform="translate(261.865234 0)"/>
     <use xlink:href="#DejaVuSans-6c" transform="translate(289.648438 0)"/>
     <use xlink:href="#DejaVuSans-65" transform="translate(317.431641 0)"/>
     <use xlink:href="#DejaVuSans-73" transform="translate(378.955078 0)"/>
     <use xlink:href="#DejaVuSans-20" transform="translate(431.054688 0)"/>
     <use xlink:href="#DejaVuSans-69" transform="translate(462.841797 0)"/>
     <use xlink:href="#DejaVuSans-6e" transform="translate(490.625 0)"/>
     <use xlink:href="#DejaVuSans-20" transform="translate(554.003906 0)"/>
     <use xlink:href="#DejaVuSans-66" transform="translate(585.791016 0)"/>
     <use xlink:href="#DejaVuSans-69" transform="translate(620.996094 0)"/>
     <use xlink:href="#DejaVuSans-66" transform="translate(648.779297 0)"/>
     <use xlink:href="#DejaVuSans-74" transform="translate(682.234375 0)"/>
     <use xlink:href="#DejaVuSans-65" transform="translate(721.443359 0)"/>
     <use xlink:href="#DejaVuSans-65" transform="translate(782.966797 0)"/>
     <use xlink:href="#DejaVuSans-6e" transform="translate(844.490234 0)"/>
     <use xlink:href="#DejaVuSans-20" transform="translate(907.869141 0)"/>
     <use xlink:href="#DejaVuSans-63" transform="translate(939.65625 0)"/>
     <use xlink:href="#DejaVuSans-6f" transform="translate(994.636719 0)"/>
     <use xlink:href="#DejaVuSans-6e" transform="translate(1055.818359 0)"/>
     <use xlink:href="#DejaVuSans-76" transform="translate(1119.197266 0)"/>
     <use xlink:href="#DejaVuSans-65" transform="translate(1178.376953 0)"/>
     <use xlink:href="#DejaVuSans-78" transform="translate(1238.150391 0)"/>
     <use xlink:href="#DejaVuSans-20" transform="translate(1297.330078 0)"/>
     <use xlink:href="#DejaVuSans-67" transform="translate(1329.117188 0)"/>
     <use xlink:href="#DejaVuSans-72" transform="translate(1392.59375 0)"/>
     <use xlink:href="#DejaVuSans-69" transform="translate(1433.707031 0)"/>
     <use xlink:href="#DejaVuSans-64" transform="translate(1461.490234 0)"/>
     <use xlink:href="#DejaVuSans-20" transform="translate(1524.966797 0)"/>
     <use xlink:href="#DejaVuSans-72" transform="translate(1556.753906 0)"/>
     <use xlink:href="#DejaVuSans-65" transform="translate(1595.617188 0)"/>
     <use xlink:href="#DejaVuSans-67" transform="translate(1657.140625 0)"/>
     <use xlink:href="#DejaVuSans-69" transform="translate(1720.617188 0)"/>
     <use xlink:href="#DejaVuSans-6f" transform="translate(1748.400391 0)"/>
     <use xlink:href="#DejaVuSans-6e" transform="translate(1809.582031 0)"/>
     <use xlink:href="#DejaVuSans-73" transform="translate(1872.960938 0)"/>
    </g>
   </g>
  </g>
  <g id="text_17">
   <!-- Labels count unit (3,5,7) triangles in each region. -->
   <g style="fill: #465967" transform="translate(135.667187 456.192) scale(0.1 -0.1)">
    <defs>
     <path id="DejaVuSans-4c" d="M 628 4666
L 1259 4666
L 1259 531
L 3531 531
L 3531 0
L 628 0
L 628 4666
z
" transform="scale(0.015625)"/>
     <path id="DejaVuSans-61" d="M 2194 1759
Q 1497 1759 1228 1600
Q 959 1441 959 1056
Q 959 750 1161 570
Q 1363 391 1709 391
Q 2188 391 2477 730
Q 2766 1069 2766 1631
L 2766 1759
L 2194 1759
z
M 3341 1997
L 3341 0
L 2766 0
L 2766 531
Q 2569 213 2275 61
Q 1981 -91 1556 -91
Q 1019 -91 701 211
Q 384 513 384 1019
Q 384 1609 779 1909
Q 1175 2209 1959 2209
L 2766 2209
L 2766 2266
Q 2766 2663 2505 2880
Q 2244 3097 1772 3097
Q 1472 3097 1187 3025
Q 903 2953 641 2809
L 641 3341
Q 956 3463 1253 3523
Q 1550 3584 1831 3584
Q 2591 3584 2966 3190
Q 3341 2797 3341 1997
z
" transform="scale(0.015625)"/>
     <path id="DejaVuSans-62" d="M 3116 1747
Q 3116 2381 2855 2742
Q 2594 3103 2138 3103
Q 1681 3103 1420 2742
Q 1159 2381 1159 1747
Q 1159 1113 1420 752
Q 1681 391 2138 391
Q 2594 391 2855 752
Q 3116 1113 3116 1747
z
M 1159 2969
Q 1341 3281 1617 3432
Q 1894 3584 2278 3584
Q 2916 3584 3314 3078
Q 3713 2572 3713 1747
Q 3713 922 3314 415
Q 2916 -91 2278 -91
Q 1894 -91 1617 61
Q 1341 213 1159 525
L 1159 0
L 581 0
L 581 4863
L 1159 4863
L 1159 2969
z
" transform="scale(0.015625)"/>
     <path id="DejaVuSans-75" d="M 544 1381
L 544 3500
L 1119 3500
L 1119 1403
Q 1119 906 1312 657
Q 1506 409 1894 409
Q 2359 409 2629 706
Q 2900 1003 2900 1516
L 2900 3500
L 3475 3500
L 3475 0
L 2900 0
L 2900 538
Q 2691 219 2414 64
Q 2138 -91 1772 -91
Q 1169 -91 856 284
Q 544 659 544 1381
z
M 1991 3584
L 1991 3584
z
" transform="scale(0.015625)"/>
     <path id="DejaVuSans-28" d="M 1984 4856
Q 1566 4138 1362 3434
Q 1159 2731 1159 2009
Q 1159 1288 1364 580
Q 1569 -128 1984 -844
L 1484 -844
Q 1016 -109 783 600
Q 550 1309 550 2009
Q 550 2706 781 3412
Q 1013 4119 1484 4856
L 1984 4856
z
" transform="scale(0.015625)"/>
     <path id="DejaVuSans-33" d="M 2597 2516
Q 3050 2419 3304 2112
Q 3559 1806 3559 1356
Q 3559 666 3084 287
Q 2609 -91 1734 -91
Q 1441 -91 1130 -33
Q 819 25 488 141
L 488 750
Q 750 597 1062 519
Q 1375 441 1716 441
Q 2309 441 2620 675
Q 2931 909 2931 1356
Q 2931 1769 2642 2001
Q 2353 2234 1838 2234
L 1294 2234
L 1294 2753
L 1863 2753
Q 2328 2753 2575 2939
Q 2822 3125 2822 3475
Q 2822 3834 2567 4026
Q 2313 4219 1838 4219
Q 1578 4219 1281 4162
Q 984 4106 628 3988
L 628 4550
Q 988 4650 1302 4700
Q 1616 4750 1894 4750
Q 2613 4750 3031 4423
Q 3450 4097 3450 3541
Q 3450 3153 3228 2886
Q 3006 2619 2597 2516
z
" transform="scale(0.015625)"/>
     <path id="DejaVuSans-2c" d="M 750 794
L 1409 794
L 1409 256
L 897 -744
L 494 -744
L 750 256
L 750 794
z
" transform="scale(0.015625)"/>
     <path id="DejaVuSans-35" d="M 691 4666
L 3169 4666
L 3169 4134
L 1269 4134
L 1269 2991
Q 1406 3038 1543 3061
Q 1681 3084 1819 3084
Q 2600 3084 3056 2656
Q 3513 2228 3513 1497
Q 3513 744 3044 326
Q 2575 -91 1722 -91
Q 1428 -91 1123 -41
Q 819 9 494 109
L 494 744
Q 775 591 1075 516
Q 1375 441 1709 441
Q 2250 441 2565 725
Q 2881 1009 2881 1497
Q 2881 1984 2565 2268
Q 2250 2553 1709 2553
Q 1456 2553 1204 2497
Q 953 2441 691 2322
L 691 4666
z
" transform="scale(0.015625)"/>
     <path id="DejaVuSans-37" d="M 525 4666
L 3525 4666
L 3525 4397
L 1831 0
L 1172 0
L 2766 4134
L 525 4134
L 525 4666
z
" transform="scale(0.015625)"/>
     <path id="DejaVuSans-29" d="M 513 4856
L 1013 4856
Q 1481 4119 1714 3412
Q 1947 2706 1947 2009
Q 1947 1309 1714 600
Q 1481 -109 1013 -844
L 513 -844
Q 928 -128 1133 580
Q 1338 1288 1338 2009
Q 1338 2731 1133 3434
Q 928 4138 513 4856
z
" transform="scale(0.015625)"/>
     <path id="DejaVuSans-68" d="M 3513 2113
L 3513 0
L 2938 0
L 2938 2094
Q 2938 2591 2744 2837
Q 2550 3084 2163 3084
Q 1697 3084 1428 2787
Q 1159 2491 1159 1978
L 1159 0
L 581 0
L 581 4863
L 1159 4863
L 1159 2956
Q 1366 3272 1645 3428
Q 1925 3584 2291 3584
Q 2894 3584 3203 3211
Q 3513 2838 3513 2113
z
" transform="scale(0.015625)"/>
     <path id="DejaVuSans-2e" d="M 684 794
L 1344 794
L 1344 0
L 684 0
L 684 794
z
" transform="scale(0.015625)"/>
    </defs>
    <use xlink:href="#DejaVuSans-4c"/>
    <use xlink:href="#DejaVuSans-61" transform="translate(55.712891 0)"/>
    <use xlink:href="#DejaVuSans-62" transform="translate(116.992188 0)"/>
    <use xlink:href="#DejaVuSans-65" transform="translate(180.46875 0)"/>
    <use xlink:href="#DejaVuSans-6c" transform="translate(241.992188 0)"/>
    <use xlink:href="#DejaVuSans-73" transform="translate(269.775391 0)"/>
    <use xlink:href="#DejaVuSans-20" transform="translate(321.875 0)"/>
    <use xlink:href="#DejaVuSans-63" transform="translate(353.662109 0)"/>
    <use xlink:href="#DejaVuSans-6f" transform="translate(408.642578 0)"/>
    <use xlink:href="#DejaVuSans-75" transform="translate(469.824219 0)"/>
    <use xlink:href="#DejaVuSans-6e" transform="translate(533.203125 0)"/>
    <use xlink:href="#DejaVuSans-74" transform="translate(596.582031 0)"/>
    <use xlink:href="#DejaVuSans-20" transform="translate(635.791016 0)"/>
    <use xlink:href="#DejaVuSans-75" transform="translate(667.578125 0)"/>
    <use xlink:href="#DejaVuSans-6e" transform="translate(730.957031 0)"/>
    <use xlink:href="#DejaVuSans-69" transform="translate(794.335938 0)"/>
    <use xlink:href="#DejaVuSans-74" transform="translate(822.119141 0)"/>
    <use xlink:href="#DejaVuSans-20" transform="translate(861.328125 0)"/>
    <use xlink:href="#DejaVuSans-28" transform="translate(893.115234 0)"/>
    <use xlink:href="#DejaVuSans-33" transform="translate(932.128906 0)"/>
    <use xlink:href="#DejaVuSans-2c" transform="translate(995.751953 0)"/>
    <use xlink:href="#DejaVuSans-35" transform="translate(1027.539062 0)"/>
    <use xlink:href="#DejaVuSans-2c" transform="translate(1091.162109 0)"/>
    <use xlink:href="#DejaVuSans-37" transform="translate(1122.949219 0)"/>
    <use xlink:href="#DejaVuSans-29" transform="translate(1186.572266 0)"/>
    <use xlink:href="#DejaVuSans-20" transform="translate(1225.585938 0)"/>
    <use xlink:href="#DejaVuSans-74" transform="translate(1257.373047 0)"/>
    <use xlink:href="#DejaVuSans-72" transform="translate(1296.582031 0)"/>
    <use xlink:href="#DejaVuSans-69" transform="translate(1337.695312 0)"/>
    <use xlink:href="#DejaVuSans-61" transform="translate(1365.478516 0)"/>
    <use xlink:href="#DejaVuSans-6e" transform="translate(1426.757812 0)"/>
    <use xlink:href="#DejaVuSans-67" transform="translate(1490.136719 0)"/>
    <use xlink:href="#DejaVuSans-6c" transform="translate(1553.613281 0)"/>
    <use xlink:href="#DejaVuSans-65" transform="translate(1581.396484 0)"/>
    <use xlink:href="#DejaVuSans-73" transform="translate(1642.919922 0)"/>
    <use xlink:href="#DejaVuSans-20" transform="translate(1695.019531 0)"/>
    <use xlink:href="#DejaVuSans-69" transform="translate(1726.806641 0)"/>
    <use xlink:href="#DejaVuSans-6e" transform="translate(1754.589844 0)"/>
    <use xlink:href="#DejaVuSans-20" transform="translate(1817.96875 0)"/>
    <use xlink:href="#DejaVuSans-65" transform="translate(1849.755859 0)"/>
    <use xlink:href="#DejaVuSans-61" transform="translate(1911.279297 0)"/>
    <use xlink:href="#DejaVuSans-63" transform="translate(1972.558594 0)"/>
    <use xlink:href="#DejaVuSans-68" transform="translate(2027.539062 0)"/>
    <use xlink:href="#DejaVuSans-20" transform="translate(2090.917969 0)"/>
    <use xlink:href="#DejaVuSans-72" transform="translate(2122.705078 0)"/>
    <use xlink:href="#DejaVuSans-65" transform="translate(2161.568359 0)"/>
    <use xlink:href="#DejaVuSans-67" transform="translate(2223.091797 0)"/>
    <use xlink:href="#DejaVuSans-69" transform="translate(2286.568359 0)"/>
    <use xlink:href="#DejaVuSans-6f" transform="translate(2314.351562 0)"/>
    <use xlink:href="#DejaVuSans-6e" transform="translate(2375.533203 0)"/>
    <use xlink:href="#DejaVuSans-2e" transform="translate(2438.912109 0)"/>
   </g>
  </g>
 </g>
 <defs>
  <clipPath id="p077ee7b9ff">
   <rect x="42.439932" y="47.52" width="433.520136" height="387.288"/>
  </clipPath>
 </defs>
</svg>
